<svg width="24" height="24" viewBox="0 0 24 24" fill="none" xmlns="http://www.w3.org/2000/svg">
<circle cx="12" cy="12" r="12" fill="white"/>
<path d="M21.5407 11.765C21.5407 11.765 16.2374 9.91741 11.9674 5.59692C11.9674 5.59692 6.64105 9.52674 2.37158 10.4895C2.37158 10.4895 5.76475 11.5564 6.91115 12.5978L7.02318 12.2071C7.02318 12.2071 5.37162 10.9842 4.60735 10.6456C4.60735 10.6456 8.2311 9.08463 11.9444 6.27366C11.9444 6.27366 16.0683 10.3532 21.5407 11.765Z" fill="#1E88E5"/>
<path d="M16.6414 14.7574L6.73096 14.8094V10.8276C6.73096 10.8276 10.4842 8.48588 16.6639 10.9322C16.6639 10.9322 11.5176 9.13603 7.20312 11.1402V14.1067L16.6414 14.7574Z" fill="#1E88E5"/>
<path d="M7.04568 11.6343C7.04568 11.6343 10.0792 10.2034 14.3717 11.2702C14.3717 11.2702 10.2873 10.5675 7.03418 12.1093L7.04568 11.6343Z" fill="#1E88E5"/>
<path d="M7.01758 12.5197C7.01758 12.5197 9.93908 11.5563 12.7706 12.077C12.7706 12.077 9.83205 11.8753 7.01758 12.9681V12.5197Z" fill="#1E88E5"/>
<path d="M7.13588 13.2413C7.13588 13.2413 9.42817 12.8512 11.4504 13.1373C11.4504 13.1373 8.68642 13.1633 7.06836 13.632L7.13588 13.2413Z" fill="#1E88E5"/>
<path d="M5.95584 14.1067C5.95584 14.38 5.76478 14.6014 5.5287 14.6014C5.29312 14.6014 5.10205 14.38 5.10205 14.1067C5.10205 13.8339 5.29312 13.6125 5.5287 13.6125C5.76478 13.6125 5.95584 13.8339 5.95584 14.1067Z" fill="#1E88E5"/>
<path d="M5.52883 13.3952C5.57885 13.3952 5.62636 13.4033 5.67288 13.4166L5.54033 10.5415L5.42529 13.4068C5.4593 13.4004 5.49332 13.3952 5.52883 13.3952Z" fill="#1E88E5"/>
<mask id="mask0_136_7077" style="mask-type:luminance" maskUnits="userSpaceOnUse" x="4" y="14" width="3" height="5">
<path d="M4.60645 14.7366H6.31753V18.0237H4.60645V14.7366Z" fill="white"/>
</mask>
<g mask="url(#mask0_136_7077)">
<path d="M5.46095 16.6962V18.0237H5.75356L5.66352 15.6947L5.96213 18.0237H6.30374L5.71604 14.7816C5.65652 14.8036 5.5945 14.8186 5.52848 14.8186C5.44895 14.8186 5.37342 14.8001 5.3039 14.7683L4.61816 18.0237H5.3154L5.46095 16.6962Z" fill="#1E88E5"/>
</g>
</svg>
