<svg width="243" height="243" viewBox="0 0 243 243" fill="none" xmlns="http://www.w3.org/2000/svg">
<path d="M213.983 107.664C211.245 107.664 210.214 94.3351 212.953 94.122C198.145 95.6979 182.94 98.1203 172.604 96.4781C168.976 100.953 166.015 105.93 163.815 111.255C162.419 106.243 161.911 101.025 162.314 95.8376C160.348 95.6775 138.891 81.4504 129.857 76.1663C127.898 77.4913 126.229 79.2005 124.952 81.19C123.673 83.1794 122.814 85.4078 122.422 87.7398L154.086 107.003L156.58 103.412C155.997 104.846 155.671 106.371 155.616 107.918C155.525 111.029 156.531 115.58 160.282 123.569C163.942 124.667 169.913 122.975 174.464 120.344C174.258 117.485 175.654 113.985 176.706 111.058C175.898 110.466 175.049 109.931 174.167 109.457C187.586 110.34 200.213 109.34 213.983 107.664Z" fill="url(#paint0_linear_83_3326)"/>
<path d="M102.427 128.685C95.4724 128.141 88.4946 127.949 81.5206 128.113C81.9559 126.631 82.2169 125.103 82.2983 123.561C76.5795 125.048 71.0438 125.094 63.6792 124.043V123.951C60.2576 126.215 57.2706 134.24 59.416 140.139L53.4769 152.682L36.5506 141.883C31.4495 145.062 28.8875 149.134 27.0117 155.379L48.3529 169.995C49.7846 170.977 51.408 171.646 53.1162 171.955C54.8246 172.266 56.5793 172.21 58.2647 171.792C59.9501 171.376 61.5281 170.607 62.8948 169.535C64.2616 168.465 65.3861 167.116 66.1943 165.58L73.011 152.611L64.4076 146.04C65.6695 146.777 67.0243 147.34 68.436 147.716C75.4587 149.66 85.7284 148.883 92.6354 148.036C90.604 156.117 89.016 164.303 87.8786 172.557C92.2339 175.487 97.5448 176.641 102.723 175.782C106.592 164.94 109.861 153.892 112.515 142.689C112.911 141.095 112.956 139.434 112.645 137.821C112.335 136.209 111.676 134.682 110.716 133.349C109.756 132.016 108.517 130.909 107.086 130.103C105.654 129.298 104.065 128.814 102.427 128.685Z" fill="url(#paint1_linear_83_3326)"/>
<path d="M202.592 57.7289C202.42 57.5553 202.215 57.4176 201.989 57.3236C201.764 57.2295 201.522 57.1812 201.276 57.1812C201.032 57.1812 200.79 57.2295 200.565 57.3236C200.338 57.4176 200.134 57.5553 199.961 57.7289L199.48 58.2105L198.998 57.7289C198.649 57.3802 198.176 57.1842 197.682 57.1843C197.189 57.1844 196.716 57.3805 196.366 57.7295C196.019 58.0786 195.822 58.5518 195.822 59.0453C195.822 59.5387 196.019 60.012 196.368 60.3608L199.498 63.4718L202.586 60.3608C202.761 60.189 202.899 59.9844 202.994 59.7587C203.088 59.5331 203.137 59.2908 203.137 59.0461C203.139 58.8014 203.09 58.559 202.997 58.3329C202.903 58.1067 202.765 57.9016 202.592 57.7289Z" fill="#FFD54F"/>
<path d="M71.6155 191.542L68.4358 191.062L67.0176 188.202L65.5993 191.062L62.4209 191.542L64.7313 193.761L64.1823 196.918L67.0176 195.431L69.8541 196.918L69.3051 193.761L71.6155 191.542Z" fill="#FFD54F"/>
<path d="M167.16 91.2808L164.752 93.5683C164.975 92.9333 165.113 92.272 165.164 91.601C165.839 91.5686 166.509 91.4612 167.16 91.2808Z" fill="#363939"/>
<path d="M177.179 109.608C177.019 110.066 176.859 110.546 176.676 111.053C175.868 110.461 175.019 109.926 174.137 109.452C175.166 109.494 176.173 109.563 177.179 109.608Z" fill="#363939"/>
<path d="M195.798 71.6369C192.052 68.5259 181.891 77.2642 181.891 77.2642C183.766 68.0227 170.042 75.9398 165.421 80.4438C167.8 78.5452 169.699 82.6615 169.493 84.9947C169.493 85.545 169.791 85.6593 170.637 85.0646C172.398 83.7836 173.656 86.826 170.34 88.243C170.117 88.4839 169.953 88.772 169.858 89.0858C169.25 90.8121 169.21 92.6877 169.744 94.4385C185.138 91.2866 199.527 74.7251 195.798 71.6369Z" fill="#363939"/>
<path d="M169.356 141.814L167.526 143.393L165.925 136.599L169.356 141.814Z" fill="#363939"/>
<path d="M119.102 35.3584C117.268 35.3584 115.476 35.9021 113.952 36.9208C112.427 37.9394 111.239 39.3872 110.537 41.0811C109.835 42.7751 109.652 44.6391 110.01 46.4374C110.367 48.2356 111.25 49.8876 112.547 51.184C113.843 52.4805 115.495 53.3634 117.293 53.7211C119.092 54.0789 120.956 53.8953 122.65 53.1936C124.344 52.4919 125.791 51.3037 126.81 49.7792C127.828 48.2546 128.372 46.4623 128.372 44.6288C128.375 43.4108 128.136 42.2043 127.672 41.0786C127.206 39.9528 126.523 38.9299 125.662 38.0687C124.8 37.2074 123.778 36.5247 122.652 36.0596C121.527 35.5945 120.32 35.3562 119.102 35.3584ZM119.331 50.2729C119.331 50.3336 119.307 50.3918 119.264 50.4348C119.221 50.4776 119.163 50.5017 119.102 50.5017C119.071 50.5035 119.041 50.4987 119.012 50.4879C118.984 50.477 118.958 50.4602 118.936 50.4386C118.915 50.4169 118.898 50.3911 118.887 50.3625C118.876 50.334 118.871 50.3034 118.873 50.2729V43.0902C118.874 43.0296 118.898 42.9716 118.941 42.9287C118.983 42.886 119.041 42.8618 119.102 42.8614C119.132 42.8596 119.163 42.8644 119.191 42.8753C119.22 42.8861 119.246 42.903 119.268 42.9245C119.289 42.9462 119.306 42.9721 119.317 43.0006C119.328 43.0291 119.332 43.0597 119.331 43.0902V50.2729ZM118.461 39.6144C118.469 39.4463 118.541 39.2875 118.662 39.1712C118.783 39.0548 118.945 38.9899 119.113 38.9899C119.282 38.9899 119.443 39.0548 119.565 39.1712C119.686 39.2875 119.758 39.4463 119.765 39.6144C119.758 39.7824 119.686 39.9412 119.565 40.0576C119.443 40.174 119.282 40.2389 119.113 40.2389C118.945 40.2389 118.783 40.174 118.662 40.0576C118.541 39.9412 118.469 39.7824 118.461 39.6144Z" fill="#1E88E5"/>
<path d="M64.2729 145.955L73.0112 152.611L75.0471 148.768C71.2872 148.672 67.6002 147.709 64.2729 145.955Z" fill="#363939"/>
<path d="M71.8217 95.5401L69.0767 93.6885C69.8659 93.7833 70.6615 93.814 71.4557 93.78C71.5184 94.3775 71.641 94.9672 71.8217 95.5401Z" fill="#363939"/>
<path d="M156.547 103.409C155.964 104.843 155.638 106.369 155.584 107.916L154.051 106.978L156.547 103.409Z" fill="#363939"/>
<path d="M83.5337 103.569C83.7376 104.566 83.8828 105.575 83.9683 106.589C84.4029 106.383 84.8833 106.131 85.3637 105.88L83.5337 103.569Z" fill="#363939"/>
<path d="M89.7772 174.433C89.2522 175.942 88.5876 177.452 88.1313 178.778C88.4864 180.299 89.0397 181.768 89.7772 183.147C92.0875 187.424 94.3979 195.82 96.2279 197.924C97.2344 194.927 98.3095 187.403 99.0187 183.17C95.4484 180.823 92.3199 177.866 89.7772 174.433Z" fill="#363939"/>
<path d="M28.8875 140.075C27.3271 140.007 25.7646 140.154 24.2439 140.51C19.4859 141.608 10.7717 141.608 8.27832 142.821C10.8861 144.605 17.8617 147.647 21.7505 149.431C24.9653 146.596 28.6603 144.357 32.6619 142.821C31.3123 141.906 30.0313 140.876 28.8875 140.075Z" fill="#363939"/>
<path d="M69.5338 80.9267C68.779 79.6915 67.1259 79.7601 67.2921 80.698C66.2639 79.783 64.4797 80.2164 64.6843 81.2699C63.4503 80.2634 62.0091 81.064 62.3053 82.0247C61.2314 81.2012 60.0648 82.0248 60.4308 83.0084C58.8981 82.345 57.6171 83.49 59.4243 85.2959C60.202 86.0736 63.5863 88.5887 65.485 91.7683C65.6017 91.3109 65.5909 90.8304 65.4539 90.3787C65.3168 89.9271 65.0585 89.5216 64.7072 89.2063C62.8314 87.7881 64.1124 86.0965 65.302 87.2619C66.3542 88.2913 66.0123 86.7804 65.2562 85.4319C65.4128 85.567 65.601 85.6606 65.8033 85.7038C66.0055 85.7471 66.2155 85.7388 66.4137 85.6797C66.612 85.6206 66.7921 85.5126 66.9376 85.3655C67.0831 85.2185 67.1893 85.0373 67.2463 84.8384C67.3963 84.9517 67.5692 85.031 67.753 85.0706C67.9368 85.1102 68.1269 85.1094 68.3104 85.068C68.4937 85.0266 68.6659 84.9458 68.8148 84.831C68.9638 84.7163 69.0858 84.5705 69.1727 84.4038C70.0154 84.9973 71.1628 84.6325 71.2085 83.7404C70.7005 82.8687 70.1286 81.908 69.5338 80.9267Z" fill="#363939"/>
<path d="M63.5902 111.483L61.9215 113.633C61.6928 112.742 61.464 111.872 61.2124 111.027C61.9865 111.164 63.5902 111.483 63.5902 111.483Z" fill="#363939"/>
<path d="M40.255 105.834C40.247 106.035 40.1618 106.225 40.0168 106.364C39.872 106.503 39.6788 106.581 39.4778 106.581C39.2769 106.581 39.0837 106.503 38.9388 106.364C38.794 106.225 38.7086 106.035 38.7007 105.834C38.7086 105.633 38.794 105.443 38.9388 105.304C39.0837 105.165 39.2769 105.087 39.4778 105.087C39.6788 105.087 39.872 105.165 40.0168 105.304C40.1618 105.443 40.247 105.633 40.255 105.834Z" fill="#1E88E5"/>
<path d="M50.6864 98.9716C50.6864 99.1778 50.6045 99.3756 50.4586 99.5216C50.3128 99.6674 50.1148 99.7494 49.9086 99.7494C49.7024 99.7494 49.5046 99.6674 49.3586 99.5216C49.2128 99.3756 49.1309 99.1778 49.1309 98.9716C49.1309 98.7654 49.2128 98.5676 49.3586 98.4216C49.5046 98.2758 49.7024 98.1938 49.9086 98.1938C50.1148 98.1938 50.3128 98.2758 50.4586 98.4216C50.6045 98.5676 50.6864 98.7654 50.6864 98.9716Z" fill="#1E88E5"/>
<path d="M61.0042 106.507C61.0042 106.713 60.9222 106.911 60.7764 107.057C60.6307 107.203 60.4327 107.285 60.2265 107.285C60.0202 107.285 59.8224 107.203 59.6765 107.057C59.5307 106.911 59.4487 106.713 59.4487 106.507C59.4487 106.301 59.5307 106.103 59.6765 105.957C59.8224 105.811 60.0202 105.729 60.2265 105.729C60.4327 105.729 60.6307 105.811 60.7764 105.957C60.9222 106.103 61.0042 106.301 61.0042 106.507Z" fill="#1E88E5"/>
<path d="M74.6366 108.68C74.6366 108.887 74.5546 109.084 74.4088 109.23C74.2629 109.376 74.0651 109.458 73.8588 109.458C73.6526 109.458 73.4548 109.376 73.3088 109.23C73.163 109.084 73.0811 108.887 73.0811 108.68C73.0811 108.474 73.163 108.276 73.3088 108.13C73.4548 107.985 73.6526 107.903 73.8588 107.903C74.0651 107.903 74.2629 107.985 74.4088 108.13C74.5546 108.276 74.6366 108.474 74.6366 108.68Z" fill="#1E88E5"/>
<path d="M81.7303 96.7853C81.7303 96.9916 81.6483 97.1894 81.5025 97.3353C81.3566 97.4811 81.1588 97.5631 80.9526 97.5631C80.7463 97.5631 80.5485 97.4811 80.4026 97.3353C80.2568 97.1894 80.1748 96.9916 80.1748 96.7853C80.1748 96.5791 80.2568 96.3813 80.4026 96.2354C80.5485 96.0896 80.7463 96.0076 80.9526 96.0076C81.1588 96.0076 81.3566 96.0896 81.5025 96.2354C81.6483 96.3813 81.7303 96.5791 81.7303 96.7853Z" fill="#1E88E5"/>
<path d="M94.9945 96.6252C94.9945 96.8314 94.9126 97.0292 94.7667 97.1751C94.6209 97.3209 94.4229 97.4029 94.2167 97.4029C94.0105 97.4029 93.8127 97.3209 93.6668 97.1751C93.521 97.0292 93.439 96.8314 93.439 96.6252C93.439 96.4189 93.521 96.2211 93.6668 96.0752C93.8127 95.9294 94.0105 95.8474 94.2167 95.8474C94.4229 95.8474 94.6209 95.9294 94.7667 96.0752C94.9126 96.2211 94.9945 96.4189 94.9945 96.6252Z" fill="#1E88E5"/>
<path d="M99.4779 86.081C99.4779 86.2872 99.396 86.485 99.2501 86.6309C99.1043 86.7767 98.9064 86.8587 98.7001 86.8587C98.4939 86.8587 98.2961 86.7767 98.1502 86.6309C98.0044 86.485 97.9224 86.2872 97.9224 86.081C97.9224 85.8747 98.0044 85.6769 98.1502 85.531C98.2961 85.3852 98.4939 85.3032 98.7001 85.3032C98.9064 85.3032 99.1043 85.3852 99.2501 85.531C99.396 85.6769 99.4779 85.8747 99.4779 86.081Z" fill="#1E88E5"/>
<path d="M68.5736 119.466C68.5736 119.673 68.4916 119.871 68.3458 120.016C68.2 120.162 68.0021 120.244 67.7958 120.244C67.5896 120.244 67.3918 120.162 67.2459 120.016C67.1001 119.871 67.0181 119.673 67.0181 119.466C67.0181 119.26 67.1001 119.062 67.2459 118.917C67.3918 118.771 67.5896 118.689 67.7958 118.689C68.0021 118.689 68.2 118.771 68.3458 118.917C68.4916 119.062 68.5736 119.26 68.5736 119.466Z" fill="#1E88E5"/>
<path d="M80.6283 118.689C80.6283 118.895 80.5463 119.093 80.4005 119.239C80.2547 119.384 80.0567 119.466 79.8505 119.466C79.6443 119.466 79.4465 119.384 79.3005 119.239C79.1547 119.093 79.0728 118.895 79.0728 118.689C79.0728 118.482 79.1547 118.284 79.3005 118.139C79.4465 117.993 79.6443 117.911 79.8505 117.911C80.0567 117.911 80.2547 117.993 80.4005 118.139C80.5463 118.284 80.6283 118.482 80.6283 118.689Z" fill="#1E88E5"/>
<path d="M214.372 95.4487C213.571 95.4944 212.153 95.563 211.833 95.5859C212.427 93.6885 213.482 93.6644 214.372 95.4487Z" fill="#363939"/>
<path d="M215.104 106.429C214.532 107.984 213.594 108.053 212.793 106.612C213.457 106.571 214.257 106.497 215.104 106.429Z" fill="#363939"/>
<path d="M130.951 80.4452C130.951 80.6515 130.869 80.8493 130.723 80.9952C130.578 81.141 130.379 81.223 130.173 81.223C129.967 81.223 129.769 81.141 129.623 80.9952C129.477 80.8493 129.396 80.6515 129.396 80.4452C129.396 80.239 129.477 80.0412 129.623 79.8953C129.769 79.7495 129.967 79.6675 130.173 79.6675C130.379 79.6675 130.578 79.7495 130.723 79.8953C130.869 80.0412 130.951 80.239 130.951 80.4452Z" fill="#363939"/>
<path d="M209.019 98.4454C209.011 98.6462 208.926 98.8362 208.781 98.9755C208.636 99.1148 208.442 99.1926 208.243 99.1926C208.042 99.1926 207.848 99.1148 207.703 98.9755C207.558 98.8362 207.473 98.6462 207.465 98.4454C207.473 98.2446 207.558 98.0546 207.703 97.9153C207.848 97.776 208.042 97.6982 208.243 97.6982C208.442 97.6982 208.636 97.776 208.781 97.9153C208.926 98.0546 209.011 98.2446 209.019 98.4454Z" fill="#363939"/>
<path d="M190.743 149.729C190.736 148.414 190.66 147.101 190.514 145.794L197.125 139.664L190.743 149.729Z" fill="#363939"/>
<path d="M126.422 180.838C117.486 181.954 108.413 180.991 99.9106 178.024" stroke="#363939" stroke-linecap="round" stroke-linejoin="round"/>
<path d="M172.238 146.181C166.725 159.092 156.711 169.562 144.057 175.643" stroke="#363939" stroke-linecap="round" stroke-linejoin="round"/>
<path d="M175.898 113.198C176.405 115.932 176.702 118.7 176.79 121.479" stroke="#363939" stroke-linecap="round" stroke-linejoin="round"/>
<path d="M128.138 66.5361C141.488 68.6345 153.675 75.3639 162.562 85.5453" stroke="#363939" stroke-linecap="round" stroke-linejoin="round"/>
<path d="M114.252 66.0327C116.856 65.8236 119.47 65.7853 122.078 65.9183C122.536 65.9424 123.016 65.9641 123.473 66.0098" stroke="#363939" stroke-linecap="round" stroke-linejoin="round"/>
<path d="M73.4458 88.1974C81.9633 77.2011 94.1628 69.6477 107.803 66.9248" stroke="#363939" stroke-linecap="round" stroke-linejoin="round"/>
<path d="M61.4374 126.397C61.3439 124.462 61.3515 122.522 61.4602 120.587C61.57 118.527 61.7837 116.473 62.1007 114.434" stroke="#363939" stroke-linecap="round" stroke-linejoin="round"/>
<path d="M87.9929 172.214C81.371 167.967 75.6822 162.42 71.2725 155.905" stroke="#363939" stroke-linecap="round" stroke-linejoin="round"/>
<path d="M165.17 91.5828C165.835 91.5627 166.495 91.4629 167.137 91.2854L164.758 93.55" stroke="#363939" stroke-linecap="round" stroke-linejoin="round"/>
<path d="M224.78 97.7819L229.286 95.7232C232.145 94.4193 232.176 93.0288 228.76 94.1219C228.553 94.1882 223.476 95.6979 222.675 95.8147C222.058 95.905 220.99 95.9965 220.87 95.5859C220.411 94.0208 222.314 89.7925 220.984 89.3639C220.116 89.0858 218.633 91.814 217.69 93.7788C217.03 95.1537 215.884 95.3801 214.373 95.4487" stroke="#363939" stroke-linecap="round" stroke-linejoin="round"/>
<path d="M223.956 97.8735C223.956 97.8735 230.819 97.0307 231.276 96.9585C234.842 96.4396 234.593 97.7856 231.551 98.6283C228.645 99.4326 225.146 100.434 225.146 100.434" stroke="#363939" stroke-linecap="round" stroke-linejoin="round"/>
<path d="M223.956 100.413C226.207 100.48 228.46 100.419 230.704 100.23C234.294 99.949 233.905 101.145 230.864 101.899C228.989 102.412 227.077 102.787 225.146 103.02" stroke="#363939" stroke-linecap="round" stroke-linejoin="round"/>
<path d="M215.104 106.429C215.104 106.429 220.067 106.104 221.028 106.017C222.88 105.849 224.782 105.554 226.633 105.308C227.273 105.223 228.028 105.106 228.897 104.947C232.102 104.345 232.579 103.155 228.943 103.254C226.991 103.301 225.041 103.116 223.133 102.705" stroke="#363939" stroke-linecap="round" stroke-linejoin="round"/>
<path d="M223.819 96.7756C224.167 99.6249 223.546 102.508 222.058 104.962" stroke="#363939" stroke-linecap="round" stroke-linejoin="round"/>
<path d="M221.12 96.7297C220.583 98.1493 219.757 99.4415 218.692 100.525C217.629 101.608 216.353 102.457 214.943 103.02" stroke="#363939" stroke-linecap="round" stroke-linejoin="round"/>
<path d="M177.194 109.618C177.034 110.075 176.874 110.556 176.691 111.063C175.501 110.262 174.492 109.744 174.151 109.461C175.181 109.504 176.187 109.572 177.194 109.618Z" stroke="#363939" stroke-linecap="round" stroke-linejoin="round"/>
<path d="M154.054 107.001L156.547 103.409C155.899 104.824 155.562 106.362 155.56 107.918" stroke="#363939" stroke-linecap="round" stroke-linejoin="round"/>
<path d="M162.314 95.8376C163.141 95.8376 164.21 95.1272 164.762 93.5501C164.983 92.915 165.121 92.2536 165.173 91.5828C163.023 91.6057 160.261 90.4992 163.389 83.4634C164.062 81.9512 165.368 79.6384 166.991 79.9924C168.57 80.3379 169.653 83.1323 169.52 84.9286C169.465 85.7003 170.001 85.5113 170.636 85.0598C172.408 83.7932 173.655 86.82 170.338 88.2382C170.118 88.4802 169.953 88.768 169.857 89.081C169.001 92.6928 168.971 95.6678 172.602 96.4925" stroke="#363939" stroke-linecap="round" stroke-linejoin="round"/>
<path d="M165.444 80.4451C170.065 75.9388 183.79 68.024 181.914 77.2655C181.914 77.2655 192.068 68.5284 195.821 71.6382C199.553 74.7276 185.184 91.2867 169.791 94.4435" stroke="#363939" stroke-linecap="round" stroke-linejoin="round"/>
<path d="M213.983 107.664C211.275 107.664 210.213 94.3351 212.953 94.122C198.265 95.6871 183.033 98.1371 172.604 96.4781C168.976 100.953 166.015 105.93 163.815 111.255C162.419 106.243 161.911 101.025 162.314 95.8376C160.348 95.6775 138.891 81.4504 129.857 76.1663C127.898 77.4913 126.229 79.2004 124.952 81.19C123.673 83.1794 122.814 85.4078 122.422 87.7398L155.563 107.918C155.555 108.288 155.563 108.675 155.584 109.089C155.754 112.157 156.928 116.526 160.232 123.561C164.32 124.781 170.655 122.535 174.461 120.336C174.22 116.992 176.168 112.775 177.197 109.62C189.503 110.183 201.255 109.207 213.983 107.664Z" stroke="#363939" stroke-linecap="round" stroke-linejoin="round"/>
<path d="M160.252 123.561L140.489 144.719C136.919 148.532 134.315 153.145 132.895 158.17L125.507 183.993C127.546 185.794 129.99 187.075 132.633 187.726C135.274 188.376 138.035 188.376 140.677 187.726L148.261 160.249C170.707 140.603 166.861 143.961 169.351 141.813L181.589 160.455C182.308 161.548 183.256 162.472 184.366 163.164C185.477 163.855 186.723 164.298 188.022 164.46C189.32 164.624 190.637 164.504 191.884 164.108C193.132 163.713 194.278 163.052 195.244 162.171L218.37 141.058C217.762 138.436 216.545 135.994 214.817 133.931C213.091 131.867 210.901 130.239 208.426 129.18L190.509 145.794C190.509 145.794 187.421 125.414 174.429 120.336" stroke="#363939" stroke-linecap="round" stroke-linejoin="round"/>
<path d="M167.526 143.393L165.925 136.599L169.356 141.814" stroke="#363939" stroke-linecap="round" stroke-linejoin="round"/>
<path d="M126.948 185.091C126.046 189.943 124.666 194.693 122.83 199.274C121.088 203.206 119.723 206.728 120.222 207.326C121.973 209.42 127.928 200.375 132.346 198.061C133.398 197.539 134.34 196.817 135.115 195.934C136.667 194.102 135.8 191.977 137.607 188.157" stroke="#363939" stroke-linecap="round" stroke-linejoin="round"/>
<path d="M217.437 138.246C221.224 135.021 225.196 132.02 229.332 129.257C232.922 126.877 235.964 124.636 235.873 123.881C235.549 121.182 225.627 125.556 220.685 125.139C219.51 125.017 218.323 125.118 217.185 125.437C214.898 126.128 214.6 128.296 211.009 130.561" stroke="#363939" stroke-linecap="round" stroke-linejoin="round"/>
<path d="M121.938 73.5587C121.938 68.5021 125.871 59.0751 127.406 58.3022C127.447 58.2837 127.491 58.2758 127.534 58.2798C127.579 58.2838 127.621 58.2992 127.658 58.3246C127.695 58.3501 127.723 58.3846 127.743 58.4248C127.762 58.465 127.77 58.5095 127.767 58.5538C127.241 63.9548 123.737 73.1794 128.62 77.0646" stroke="#363939" stroke-linecap="round" stroke-linejoin="round"/>
<path d="M123.013 85.4306C121.252 84.2411 118.767 82.1799 118.85 80.1693C119.08 74.6119 119.045 72.0029 119.056 69.8069C119.064 68.1828 120.342 68.1358 121.206 70.9507C121.965 73.42 122.762 76.8982 122.762 76.8982" stroke="#363939" stroke-linecap="round" stroke-linejoin="round"/>
<path d="M126.696 64.9577C127.178 64.1571 127.699 63.3324 127.909 62.9916C129.438 60.5043 130.052 61.1135 129.922 61.5734C129.412 63.3721 128.183 66.0786 127.771 67.7484C127.157 70.2057 126.112 73.6358 128.06 76.5541" stroke="#363939" stroke-linecap="round" stroke-linejoin="round"/>
<path d="M103.342 146.301C103.342 146.301 98.7901 147.285 92.6367 148.04" stroke="#363939" stroke-linecap="round" stroke-linejoin="round"/>
<path d="M61.369 126.512C61.9635 125.521 62.7484 124.658 63.6782 123.973V124.064C71.044 125.117 76.5797 125.071 82.2985 123.583C82.2171 125.125 81.9561 126.653 81.5207 128.135C88.4732 127.975 95.442 128.165 102.427 128.707C104.063 128.833 105.651 129.315 107.081 130.119C108.512 130.922 109.749 132.028 110.707 133.36C111.666 134.692 112.322 136.217 112.63 137.828C112.938 139.439 112.891 141.098 112.491 142.689C109.842 153.895 106.574 164.944 102.702 175.788C97.5229 176.647 92.2116 175.493 87.8559 172.563C88.9943 164.309 90.5826 156.123 92.6139 148.042C85.7069 148.885 75.4384 149.659 68.4145 147.722C64.2525 146.575 60.8598 144.179 59.3849 140.105C57.7006 135.481 59.2176 129.873 61.369 126.512Z" stroke="#363939" stroke-linecap="round" stroke-linejoin="round"/>
<path d="M81.5432 128.159C80.3995 128.182 79.2786 128.228 78.1577 128.273" stroke="#363939" stroke-linecap="round" stroke-linejoin="round"/>
<path d="M75.0277 148.767L66.1907 165.58C65.3824 167.116 64.258 168.465 62.8912 169.535C61.5245 170.607 59.9465 171.376 58.2611 171.792C56.5757 172.21 54.821 172.266 53.1126 171.955C51.4044 171.646 49.7809 170.977 48.3493 169.995L27.0117 155.379C28.8899 149.127 31.4555 145.053 36.5687 141.872L53.4541 152.682L59.4016 140.101" stroke="#363939" stroke-linecap="round" stroke-linejoin="round"/>
<path d="M64.2954 145.955L73.0108 152.611" stroke="#363939" stroke-linecap="round" stroke-linejoin="round"/>
<path d="M71.8217 95.5403L69.0767 93.6646C69.8672 93.753 70.6637 93.7759 71.4581 93.7332" stroke="#363939" stroke-linecap="round" stroke-linejoin="round"/>
<path d="M76.9457 96.1122C76.5339 96.3638 76.1222 96.5937 75.7104 96.8442C75.2633 97.1955 74.71 97.3846 74.1413 97.3804C73.5726 97.3763 73.0221 97.1791 72.5802 96.8213C71.879 95.9423 71.486 94.8573 71.4617 93.7332C75.141 93.5177 75.3661 91.0435 71.2077 83.7151C71.1643 83.9284 71.0651 84.1265 70.9203 84.289C70.7754 84.4514 70.59 84.5727 70.3831 84.6401C70.176 84.7075 69.9548 84.7188 69.7421 84.6728C69.5292 84.627 69.3325 84.5254 69.1718 84.3785C69.0896 84.5497 68.9696 84.7 68.8211 84.8184C68.6725 84.9367 68.499 85.0199 68.3137 85.0617C68.1284 85.1035 67.9362 85.1029 67.7511 85.0598C67.5661 85.0168 67.3933 84.9324 67.2455 84.8131C67.1883 85.0119 67.0821 85.1929 66.9365 85.3399C66.7911 85.4869 66.611 85.5949 66.4129 85.6542C66.2148 85.7134 66.0049 85.7218 65.8027 85.6789C65.6004 85.6358 65.4122 85.5426 65.2553 85.4078C66.0331 86.7563 66.3533 88.266 65.3011 87.2366C64.1116 86.0712 62.8306 87.7856 64.7075 89.1822C65.0589 89.4972 65.3171 89.9024 65.4542 90.3539C65.5914 90.8054 65.6021 91.2859 65.4853 91.743C66.5705 93.3261 67.0043 95.2663 66.6965 97.1608C66.4906 98.124 65.1181 98.8764 63.4458 98.4418C65.4407 102.026 69.5462 105.328 73.5385 103.917C77.9317 102.37 76.9457 96.1122 76.9457 96.1122Z" stroke="#363939" stroke-linecap="round" stroke-linejoin="round"/>
<path d="M105.367 77.3149C111.017 73.0421 111.24 64.0077 111.24 57.5292C111.24 57.3233 111.536 57.0476 111.696 57.168C113.125 58.0975 115.026 67.7303 114.569 72.7989" stroke="#363939" stroke-linecap="round" stroke-linejoin="round"/>
<path d="M111.851 84.9961C113.471 84.3434 114.814 83.1463 115.648 81.6106C117.39 77.7339 117.999 73.4436 117.407 69.2352C117.096 67.4076 116.147 67.5654 115.325 70.3332C114.592 72.8037 113.449 76.1206 113.449 76.1206" stroke="#363939" stroke-linecap="round" stroke-linejoin="round"/>
<path d="M105.272 77.2549C106.847 75.3285 108.329 71.9093 108.26 70.1046C108.075 68.0812 107.723 66.0767 107.208 64.1113C107.104 63.6298 107.705 62.9893 109.45 66.2785" stroke="#363939" stroke-linecap="round" stroke-linejoin="round"/>
<path d="M83.9683 106.589C83.8828 105.575 83.7376 104.566 83.5337 103.569L85.3372 105.848" stroke="#363939" stroke-linecap="round" stroke-linejoin="round"/>
<path d="M82.321 123.584H82.3439C83.3275 117.774 84.4027 111.895 83.968 106.589C93.1024 101.797 104.712 92.5088 111.9 86.1856C112.715 85.3705 109.86 81.7611 109.075 80.8353C108.27 79.8854 105.12 76.3879 104.009 76.9441C95.6125 84.1623 86.5595 90.5796 76.9683 96.1122" stroke="#363939" stroke-linecap="round" stroke-linejoin="round"/>
<path d="M100.391 176.08C99.802 178.414 99.3512 180.782 99.0418 183.171C95.4623 180.827 92.3322 177.859 89.8003 174.41C89.8919 174.21 89.9684 174.004 90.029 173.792" stroke="#363939" stroke-linecap="round" stroke-linejoin="round"/>
<path d="M89.7771 183.142C89.0397 181.764 88.4863 180.295 88.1313 178.773C87.7422 179.693 87.5376 180.68 87.5293 181.679C87.817 183.104 88.3184 184.476 89.0162 185.75C91.3723 190.142 93.7284 199.338 95.4212 199.223C95.6728 199.2 95.9473 198.72 96.2218 197.919C94.4207 195.82 92.1103 187.425 89.7771 183.142Z" stroke="#363939" stroke-linecap="round" stroke-linejoin="round"/>
<path d="M89.7772 174.433C89.2522 175.942 88.5876 177.452 88.1313 178.778C88.4864 180.299 89.0397 181.768 89.7772 183.147C92.0875 187.424 94.3979 195.82 96.2279 197.924C97.2344 194.927 98.3095 187.403 99.0187 183.17C95.4484 180.823 92.3199 177.866 89.7772 174.433Z" stroke="#363939" stroke-linecap="round" stroke-linejoin="round"/>
<path d="M27.9954 152.474C25.9767 151.335 23.8914 150.319 21.7505 149.432C24.9562 146.601 28.6443 144.37 32.639 142.844C33.2566 143.255 33.3481 143.415 33.9429 143.759" stroke="#363939" stroke-linecap="round" stroke-linejoin="round"/>
<path d="M26.2569 138.749C24.8066 138.64 23.3483 138.756 21.9335 139.093C17.084 140.213 7.56919 140.03 7.24533 141.7C7.19958 141.951 7.58846 142.34 8.27471 142.821C10.7681 141.608 19.4823 141.608 24.2632 140.533C25.7836 140.176 27.3464 140.029 28.9068 140.1C28.124 139.475 27.2225 139.015 26.2569 138.749Z" stroke="#363939" stroke-linecap="round" stroke-linejoin="round"/>
<path d="M28.8875 140.075C27.3271 140.007 25.7646 140.154 24.2439 140.51C19.4859 141.608 10.7717 141.608 8.27832 142.821C10.8861 144.605 17.8618 147.647 21.7505 149.431C24.9653 146.596 28.6604 144.357 32.6619 142.821C31.3123 141.906 30.0313 140.876 28.8875 140.075Z" stroke="#363939" stroke-linecap="round" stroke-linejoin="round"/>
<path d="M14.363 107.344C13.4938 107.641 12.3717 107.982 11.2327 108.327C9.12703 108.963 8.35048 108.579 10.455 107.138C12.4448 105.787 14.6403 104.767 16.9563 104.118" stroke="#363939" stroke-linecap="round" stroke-linejoin="round"/>
<path d="M19.0511 101.465C18.4159 102.085 17.841 102.764 17.3342 103.494C16.4248 104.856 15.8097 106.393 15.5283 108.007" stroke="#363939" stroke-linecap="round" stroke-linejoin="round"/>
<path d="M13.5624 105.377C5.94496 108.053 4.98903 106.804 11.3663 103.89C13.827 102.836 16.3885 102.037 19.0114 101.503" stroke="#363939" stroke-linecap="round" stroke-linejoin="round"/>
<path d="M28.4804 107.388C25.2936 107.21 18.4937 108.398 13.5623 110.037C11.412 110.746 10.2622 110.278 12.6473 108.482C13.6521 107.73 14.7289 107.081 15.8618 106.542" stroke="#363939" stroke-linecap="round" stroke-linejoin="round"/>
<path d="M15.2769 102.426C12.7161 103.02 6.87938 103.24 15.9632 100.298C17.3814 99.8396 19.0935 99.4556 20.6983 99.1088C20.789 98.5124 20.6846 97.9027 20.401 97.3703C19.4378 95.7571 19.7629 95.1021 21.3388 96.0665C23.339 97.4276 25.7139 98.1314 28.1327 98.0795" stroke="#363939" stroke-linecap="round" stroke-linejoin="round"/>
<path d="M20.6984 99.1064C20.6883 99.7103 20.8029 100.31 21.0351 100.868C21.2674 101.425 21.6123 101.929 22.0482 102.347C22.4841 102.765 23.0016 103.089 23.5685 103.298C24.1352 103.507 24.7389 103.596 25.342 103.561" stroke="#363939" stroke-linecap="round" stroke-linejoin="round"/>
<path d="M71.2041 83.7378C71.1583 84.63 70.0146 84.996 69.1682 84.4012C69.0815 84.5681 68.9594 84.7141 68.8106 84.8289C68.6617 84.9437 68.4894 85.0247 68.3061 85.066C68.1226 85.1074 67.9324 85.1083 67.7485 85.0686C67.5647 85.0287 67.3918 84.9494 67.2419 84.8358C67.1846 85.0345 67.0783 85.2154 66.9327 85.3623C66.7872 85.5092 66.6071 85.6171 66.4089 85.6762C66.2108 85.7353 66.001 85.7436 65.7988 85.7005C65.5967 85.6574 65.4085 85.5641 65.2518 85.4294C66.0066 86.779 66.3498 88.29 65.2975 87.2594C64.108 86.094 62.8318 87.7807 64.7028 89.2038C65.0546 89.5186 65.3132 89.9241 65.4504 90.3758C65.5875 90.8277 65.5979 91.3084 65.4805 91.7658C63.5831 88.5873 60.1976 86.0711 59.4198 85.2933C57.6139 83.4874 58.8937 82.3425 60.4263 83.0058C60.0651 82.0222 61.227 81.1999 62.3009 82.0222C62.0035 81.059 63.4458 80.2608 64.6799 81.2673C64.474 80.2151 66.2583 79.7804 67.2876 80.6954C67.1275 79.7576 68.7781 79.6865 69.5294 80.9242C70.1314 81.9054 71.2041 83.7378 71.2041 83.7378Z" stroke="#363939" stroke-linecap="round" stroke-linejoin="round"/>
<path d="M61.9179 113.633L63.5902 111.483C62.7679 111.324 61.9902 111.163 61.2124 111.027" stroke="#363939" stroke-linecap="round" stroke-linejoin="round"/>
<path d="M63.4505 98.4454C63.1532 98.331 48.7623 94.5795 28.5444 96.5191C27.448 100.613 27.5735 104.939 28.9056 108.963C39.7163 108.084 50.5975 108.779 61.2088 111.025C62.4975 115.239 63.3254 119.58 63.6781 123.972" stroke="#363939" stroke-linecap="round" stroke-linejoin="round"/>
<path d="M49.2909 72.2318C49.3445 72.8516 49.2132 73.4733 48.9135 74.0184C48.6137 74.5634 48.1592 75.0075 47.6072 75.2944C47.0552 75.5811 46.4305 75.6978 45.8122 75.6298C45.1939 75.5616 44.6096 75.3117 44.1333 74.9116C43.6569 74.5114 43.31 73.9792 43.1361 73.3819C42.9623 72.7846 42.9694 72.1492 43.1566 71.556C43.3439 70.9627 43.7027 70.4384 44.1879 70.049C44.6731 69.6598 45.2629 69.4229 45.8826 69.3688C46.7136 69.2989 47.5386 69.5608 48.1773 70.0973C48.8159 70.6337 49.2163 71.401 49.2909 72.2318Z" stroke="#363939" stroke-linecap="round" stroke-linejoin="round"/>
<path d="M174.686 181.295H164.781" stroke="#363939" stroke-linecap="round" stroke-linejoin="round"/>
<path d="M169.734 186.258V176.331" stroke="#363939" stroke-linecap="round" stroke-linejoin="round"/>
<path d="M35.779 96.0435C34.6604 100.22 34.8683 104.641 36.3737 108.693" stroke="#363939" stroke-linecap="round" stroke-linejoin="round"/>
<path d="M99.7085 80.5583C103.147 82.8575 105.946 85.9912 107.844 89.6662" stroke="#363939" stroke-linecap="round" stroke-linejoin="round"/>
<path d="M214.372 95.4487C213.571 95.4944 212.153 95.563 211.833 95.5859C212.427 93.6885 213.482 93.6644 214.372 95.4487Z" stroke="#363939" stroke-linecap="round" stroke-linejoin="round"/>
<path d="M215.103 106.429C214.531 107.984 213.594 108.053 212.793 106.612C213.456 106.571 214.257 106.497 215.103 106.429Z" stroke="#363939" stroke-linecap="round" stroke-linejoin="round"/>
<path d="M171.094 121.981C180.359 128.483 182.893 136.508 186.785 150.756C186.921 151.253 187.183 151.707 187.544 152.075C187.906 152.443 188.355 152.711 188.85 152.857C189.345 153.001 189.869 153.017 190.371 152.902C190.874 152.787 191.339 152.546 191.722 152.201L213.482 132.482" stroke="#363939" stroke-linecap="round" stroke-linejoin="round"/>
<path d="M135.114 188.134L143.005 157.895L166.199 137.742" stroke="#363939" stroke-linecap="round" stroke-linejoin="round"/>
<path d="M75.9618 127.221C75.0866 128.703 73.9057 129.982 72.4976 130.972C71.0894 131.962 69.4864 132.641 67.7954 132.963" stroke="#363939" stroke-linecap="round" stroke-linejoin="round"/>
<path d="M89.1138 164.757C91.4291 166.426 94.0668 167.597 96.8591 168.193C99.6513 168.787 102.537 168.795 105.332 168.213" stroke="#363939" stroke-linecap="round" stroke-linejoin="round"/>
<path d="M42.7257 145.82C38.2434 148.839 35.3816 153.734 33.6455 159.906" stroke="#363939" stroke-linecap="round" stroke-linejoin="round"/>
<path d="M197.125 139.664L190.744 149.729C190.737 148.414 190.661 147.101 190.515 145.794" stroke="#363939" stroke-linecap="round" stroke-linejoin="round"/>
<path d="M105.375 77.3147C108.652 74.8442 109.45 71.1745 109.564 67.836C109.33 65.5011 108.932 63.1855 108.375 60.9061C108.303 60.4486 108.947 59.8996 110.251 62.5302L111.005 64.1724" stroke="#363939" stroke-linecap="round" stroke-linejoin="round"/>
<path d="M119.102 35.3584C117.268 35.3584 115.476 35.9021 113.952 36.9208C112.427 37.9394 111.239 39.3872 110.537 41.0811C109.835 42.7751 109.652 44.6391 110.01 46.4374C110.367 48.2356 111.25 49.8876 112.547 51.184C113.843 52.4805 115.495 53.3634 117.293 53.7211C119.092 54.0789 120.956 53.8953 122.65 53.1936C124.344 52.4919 125.791 51.3037 126.81 49.7792C127.828 48.2546 128.372 46.4623 128.372 44.6288C128.375 43.4108 128.136 42.2043 127.672 41.0786C127.206 39.9528 126.523 38.9299 125.662 38.0687C124.8 37.2074 123.778 36.5247 122.652 36.0596C121.527 35.5945 120.32 35.3562 119.102 35.3584Z" stroke="#363939" stroke-linejoin="round"/>
<path d="M118.199 39.5939C118.199 39.8334 118.294 40.063 118.463 40.2324C118.633 40.4017 118.862 40.4968 119.102 40.4968C119.341 40.4968 119.571 40.4017 119.74 40.2324C119.91 40.063 120.005 39.8334 120.005 39.5939C120.005 39.3544 119.91 39.1247 119.74 38.9554C119.571 38.7861 119.341 38.6909 119.102 38.6909C118.862 38.6909 118.633 38.7861 118.463 38.9554C118.294 39.1247 118.199 39.3544 118.199 39.5939Z" stroke="#363939" stroke-linejoin="round"/>
<path d="M119.544 42.9422C119.544 42.6929 119.341 42.4907 119.092 42.4907C118.843 42.4907 118.641 42.6929 118.641 42.9422H119.544ZM118.641 50.3916C118.641 50.641 118.843 50.8431 119.092 50.8431C119.341 50.8431 119.544 50.641 119.544 50.3916H118.641ZM118.641 42.9422V50.3916H119.544V42.9422H118.641Z" fill="#363939"/>
<defs>
<linearGradient id="paint0_linear_83_3326" x1="168.203" y1="76.1663" x2="168.203" y2="123.909" gradientUnits="userSpaceOnUse">
<stop stop-color="#B2D6FF"/>
<stop offset="1" stop-color="#FCFCFC"/>
</linearGradient>
<linearGradient id="paint1_linear_83_3326" x1="69.9305" y1="123.561" x2="69.9305" y2="176.059" gradientUnits="userSpaceOnUse">
<stop stop-color="#A6A6A6"/>
<stop offset="1" stop-color="#404040"/>
</linearGradient>
</defs>
</svg>
