<svg width="257" height="257" viewBox="0 0 257 257" fill="none" xmlns="http://www.w3.org/2000/svg">
<path d="M61.5377 155.163C61.147 154.321 60.5939 153.565 59.9098 152.937C59.2259 152.309 58.4247 151.822 57.5522 151.506C56.6798 151.189 55.7533 151.047 54.826 151.089C53.8987 151.131 52.9888 151.356 52.1487 151.751L41.355 156.784L47.9369 170.921C49.649 171.68 51.4122 172.318 53.2135 172.832C48.1547 164.725 49.9938 163.322 55.3187 169.129C60.4424 174.72 66.7646 175.193 71.0235 175.592L61.5377 155.163Z" fill="#1E88E5"/>
<path d="M60.1815 189.332C58.8009 188.927 57.3376 188.484 55.8755 188.026L61.1507 199.35C60.2649 196.09 59.9374 192.702 60.1815 189.332Z" fill="#1E88E5"/>
<path d="M63.9095 202.038C63.1874 202.345 62.4334 201.773 61.9736 201.069L64.0789 205.571L74.5568 200.681C71.5562 201.095 65.676 201.819 63.9095 202.038Z" fill="#1E88E5"/>
<path d="M46.4611 184.666C44.38 183.843 42.2505 182.996 40.2421 182.004C37.5319 180.673 37.6949 179.294 40.3389 179.923C41.3068 180.141 42.4441 180.286 44.3074 180.527C42.1758 179.736 40.0984 178.806 38.0884 177.744C35.354 176.196 35.8864 174.404 38.4998 175.349C39.2015 175.616 40.8228 176.123 42.7103 176.606L42.4199 176.002C40.9271 175.153 39.4815 174.225 38.0897 173.22C35.5731 171.283 36.299 169.589 38.7673 170.896C39.1302 171.089 39.6868 171.331 40.3643 171.622L34.8471 159.764L24.0775 164.798C23.2354 165.189 22.4789 165.741 21.8513 166.425C21.2238 167.109 20.7374 167.91 20.4204 168.783C20.1034 169.655 19.9618 170.582 20.0038 171.51C20.046 172.437 20.2708 173.346 20.6656 174.187L37.4109 210.196C37.8017 211.038 38.355 211.795 39.0389 212.423C39.7228 213.049 40.5241 213.536 41.3965 213.853C42.2689 214.17 43.1953 214.311 44.1226 214.269C45.0498 214.227 45.9597 214.003 46.7998 213.608L57.5936 208.574L46.4611 184.666Z" fill="#1E88E5"/>
<path d="M121.649 18.726L104.927 25.7448L119.786 15.3382L115.938 8.3449C115.812 8.11774 115.633 7.92413 115.417 7.78028C115.201 7.63641 114.953 7.54651 114.695 7.51807C114.436 7.48963 114.175 7.52351 113.932 7.61684C113.69 7.71017 113.473 7.86026 113.301 8.05452L93.1905 30.4393C92.9689 30.6907 92.8302 31.0044 92.7935 31.3376C92.7567 31.6708 92.8236 32.0071 92.985 32.3008C93.1465 32.5946 93.3946 32.8314 93.6955 32.9789C93.9965 33.1265 94.3356 33.1776 94.6666 33.1253L124.359 28.1163C124.615 28.0746 124.856 27.9726 125.064 27.8185C125.271 27.6644 125.439 27.4628 125.553 27.2306C125.666 26.9984 125.723 26.7423 125.717 26.4839C125.712 26.2254 125.644 25.9719 125.521 25.7448L121.649 18.726Z" fill="#B2D6FF"/>
<path d="M131.214 143.046C129.327 143.918 128.891 147.353 129.686 152.122C133.512 151.813 137.298 151.124 140.988 150.065C137.24 145.031 133.416 142.03 131.214 143.046Z" fill="#1E88E5"/>
<path d="M150.502 169.012C147.041 171.755 142.976 173.633 138.643 174.488C143.194 181.772 148.033 186.176 150.719 184.918C153.405 183.677 153.163 177.168 150.502 169.012Z" fill="#1E88E5"/>
<path d="M240.886 41.1909C234.909 46.3452 224.067 63.5515 222.059 69.7705C222.422 72.7711 222.712 74.9006 222.906 76.7154C227.362 77.311 231.883 77.2212 236.313 76.4493L236.264 74.465C241.443 57.5503 241.636 50.2895 240.886 41.1909Z" fill="#737373"/>
<path d="M169.062 20.5C164.754 28.2193 160.253 45.9338 159.892 53.9689C161.174 56.0245 162.408 58.0572 163.594 60.0669C167.011 57.0265 170.892 54.5508 175.089 52.7335C175.165 48.2314 175.764 40.1886 169.062 20.5Z" fill="#737373"/>
<path d="M60.551 189.509C60.2122 196.503 61.5928 202.118 63.7465 202.286C65.7842 202.457 67.836 197.809 68.6587 191.518C65.9029 191.086 63.19 190.414 60.551 189.509Z" fill="#737373"/>
<path d="M119.938 214.532C118.401 215.227 117.017 216.219 115.864 217.451C114.71 218.681 113.811 220.128 113.216 221.706C112.622 223.285 112.344 224.965 112.399 226.651C112.454 228.336 112.841 229.996 113.537 231.532C114.233 233.068 115.224 234.452 116.455 235.606C117.686 236.76 119.132 237.659 120.711 238.253C122.29 238.847 123.97 239.125 125.656 239.07C127.342 239.015 129.001 238.628 130.537 237.933L119.938 214.532Z" fill="#A6A6A6"/>
<path d="M236.579 86.3235L236.652 89.8564C240.886 88.8134 240.79 87.2914 236.579 86.3235Z" fill="#737373"/>
<path d="M163.569 75.2152C164.11 76.1539 167.247 75.4088 171.264 73.5697C170.562 72.1904 169.788 70.7678 168.989 69.2866C165.287 71.8746 163.021 74.2664 163.569 75.2152Z" fill="#737373"/>
<path d="M185.107 62.7773C184.744 62.1482 183.219 62.2679 181.065 62.9709L182.929 66.1651C184.623 64.6406 185.47 63.4065 185.107 62.7773Z" fill="#737373"/>
<path d="M122.987 165.721C122.351 167.746 121.508 169.701 120.47 171.553L123.059 172.788L122.987 165.721Z" fill="#737373"/>
<path d="M108.708 145.515L107.547 149.194L106.772 146.532L108.708 145.515Z" fill="#1E88E5"/>
<path d="M214.799 88.0899C214.799 89.2514 218.284 90.2193 223.124 90.5823C223.196 88.6222 223.22 87.0009 223.245 85.5974C218.332 85.9362 214.799 86.9283 214.799 88.0899Z" fill="#737373"/>
<path d="M131.19 120.251C131.62 119.97 131.987 119.601 132.262 119.166C132.537 118.732 132.717 118.244 132.787 117.734C132.86 117.192 132.81 116.641 132.639 116.121C132.469 115.602 132.183 115.127 131.802 114.734C131.423 114.34 130.959 114.038 130.446 113.849C129.933 113.661 129.383 113.591 128.839 113.645C129.167 113.195 129.375 112.669 129.444 112.116C129.571 111.17 129.319 110.213 128.744 109.451C128.168 108.69 127.315 108.187 126.371 108.051C125.659 107.952 124.933 108.07 124.289 108.39C124.336 108.24 124.368 108.086 124.386 107.93C124.493 107.148 124.341 106.353 123.953 105.666C123.566 104.979 122.964 104.438 122.239 104.125C121.515 103.812 120.708 103.746 119.943 103.934C119.177 104.123 118.494 104.558 117.998 105.171C118.003 104.301 117.692 103.457 117.122 102.799C116.553 102.14 115.763 101.71 114.9 101.59L114.659 101.542C113.819 101.425 112.965 101.609 112.248 102.061C111.53 102.512 110.995 103.202 110.737 104.01C110.454 103.26 109.93 102.626 109.247 102.207C108.563 101.788 107.76 101.61 106.964 101.698C106.167 101.787 105.423 102.139 104.849 102.697C104.274 103.256 103.903 103.991 103.792 104.784C103.772 104.888 103.764 104.993 103.768 105.099C103.218 104.568 102.516 104.221 101.759 104.107C101.291 104.04 100.813 104.067 100.354 104.185C99.8958 104.304 99.4652 104.512 99.0873 104.797C98.7095 105.083 98.3918 105.441 98.1528 105.849C97.9136 106.258 97.7578 106.711 97.6942 107.18C97.6314 107.684 97.6738 108.195 97.819 108.681C97.5137 108.534 97.187 108.436 96.851 108.391C96.1382 108.292 95.412 108.409 94.7663 108.727C94.1206 109.045 93.585 109.549 93.2285 110.174C92.8722 110.8 92.7112 111.517 92.7667 112.235C92.8221 112.952 93.0914 113.637 93.5397 114.2C92.6917 114.097 91.8347 114.299 91.1219 114.77C90.4089 115.24 89.8865 115.949 89.6477 116.769C89.409 117.589 89.4695 118.467 89.8185 119.247C90.1674 120.027 90.7822 120.657 91.5529 121.025C90.7054 121.138 89.9258 121.549 89.353 122.183C88.7801 122.818 88.4513 123.635 88.425 124.49C88.3989 125.344 88.6771 126.18 89.2101 126.849C89.7431 127.517 90.4962 127.975 91.3351 128.14C90.7258 128.543 90.254 129.123 89.9826 129.802C89.7112 130.48 89.6532 131.225 89.8162 131.937C89.9792 132.651 90.3554 133.296 90.8949 133.789C91.4343 134.282 92.1112 134.599 92.8354 134.697C93.1321 134.721 93.4303 134.721 93.7269 134.697C93.4239 135.158 93.2257 135.681 93.1461 136.226C93.0189 137.172 93.2704 138.13 93.846 138.891C94.4216 139.652 95.2746 140.156 96.2193 140.291C96.9393 140.403 97.6761 140.285 98.3246 139.952C98.1467 140.618 98.1637 141.321 98.374 141.978C98.5842 142.634 98.9786 143.216 99.5103 143.656C99.0549 141.348 99.0384 138.975 99.4619 136.661C101.132 124.562 107.447 130.829 108.682 135.209C108.972 135.984 109.48 136.008 110.375 134.677C112.24 131.918 115.652 135.596 111.659 139.42C111.248 139.831 111.053 142.638 112.678 145.687C113.204 146.164 113.862 146.467 114.566 146.558C115.06 146.626 115.563 146.589 116.043 146.453C116.523 146.315 116.969 146.079 117.353 145.761C117.738 145.443 118.052 145.048 118.276 144.602C118.5 144.156 118.629 143.669 118.655 143.171C119.128 143.644 119.724 143.977 120.375 144.13C121.027 144.282 121.709 144.251 122.343 144.037C122.977 143.823 123.539 143.435 123.965 142.92C124.391 142.403 124.664 141.777 124.753 141.114C124.819 140.62 124.786 140.118 124.656 139.638C125.167 139.869 125.724 139.979 126.284 139.957C126.844 139.936 127.392 139.784 127.883 139.514C128.374 139.244 128.795 138.863 129.113 138.401C129.431 137.94 129.636 137.41 129.714 136.855C129.784 136.377 129.754 135.891 129.63 135.425C129.505 134.958 129.287 134.523 128.988 134.145C129.837 134.252 130.696 134.054 131.413 133.585C132.128 133.117 132.654 132.409 132.896 131.587C133.137 130.767 133.079 129.886 132.731 129.105C132.383 128.323 131.768 127.69 130.996 127.321C131.781 127.22 132.511 126.865 133.075 126.31C133.639 125.755 134.004 125.031 134.118 124.247C134.243 123.332 134.007 122.403 133.461 121.658C132.916 120.912 132.1 120.408 131.19 120.251Z" fill="#363939"/>
<path d="M240.372 109.038C244 117.189 245.975 125.978 246.184 134.898C246.393 143.817 244.832 152.69 241.588 161.001C238.345 169.311 233.485 176.898 227.292 183.319C221.097 189.739 213.69 194.867 205.5 198.407" stroke="#363939" stroke-linecap="round" stroke-linejoin="round"/>
<path d="M189.02 69.8838C201.574 71.7956 213.328 77.2243 222.923 85.5414" stroke="#363939" stroke-linecap="round" stroke-linejoin="round"/>
<path d="M148.729 76.1753C154.585 73.2468 160.837 71.1926 167.289 70.0786" stroke="#363939" stroke-linecap="round" stroke-linejoin="round"/>
<path d="M108.605 190.107L135.515 249.492" stroke="#363939" stroke-linecap="round" stroke-linejoin="round"/>
<path d="M94.1827 158.26L56.2142 74.5299C54.1573 70.0723 57.0611 66.1331 61.925 66.7609L127.844 75.3756C131.676 75.8772 135.319 77.3379 138.435 79.6224C141.553 81.9068 144.043 84.9411 145.674 88.444L220.256 249.442" stroke="#363939" stroke-linecap="round" stroke-linejoin="round"/>
<path d="M107.558 150.545C99.1622 156.21 90.0283 160.696 80.4123 163.874C75.6961 164.552 70.9458 164.963 66.1836 165.109" stroke="#363939" stroke-linecap="round" stroke-linejoin="round"/>
<path d="M70.9993 175.563L61.5084 155.139C60.7148 153.442 59.2802 152.129 57.5199 151.49C55.7595 150.851 53.8171 150.936 52.1194 151.727L24.0773 164.818C22.3804 165.612 21.0678 167.046 20.4278 168.806C19.7878 170.567 19.8728 172.509 20.664 174.207L37.4106 210.217C38.2042 211.913 39.6387 213.226 41.3991 213.866C43.1595 214.505 45.1019 214.42 46.7996 213.629L74.5564 200.681" stroke="#363939" stroke-linecap="round" stroke-linejoin="round"/>
<path d="M37.9672 158.309C37.9672 158.309 19.1103 156.574 11.3719 151.073C3.63348 145.573 10.0601 132.224 20.0107 139.312C30.1205 146.508 37.9672 158.309 37.9672 158.309Z" stroke="#FFD54F" stroke-linecap="round" stroke-linejoin="round"/>
<path d="M37.9468 158.309C37.9468 158.309 49.6715 143.452 51.0139 134.036C52.3563 124.621 38.2537 120.125 36.5458 132.194C34.7933 144.494 37.9468 158.309 37.9468 158.309Z" stroke="#FFD54F" stroke-linecap="round" stroke-linejoin="round"/>
<path d="M107.139 149.141L108.339 145.321C108.339 145.321 97.0405 152.992 99.119 136.487C100.61 124.642 106.81 130.374 108.246 134.731C108.582 135.75 108.992 136.072 110.029 134.527C111.891 131.767 115.324 135.468 111.311 139.27C110.541 140.001 110.835 145.433 115.45 149.386C118.38 151.898 127.453 153.645 140.593 149.895" stroke="#363939" stroke-linecap="round" stroke-linejoin="round"/>
<path d="M106.403 146.355C107.159 149.615 108.237 152.793 109.621 155.841" stroke="#363939" stroke-linecap="round" stroke-linejoin="round"/>
<path d="M113.567 147.395C110.638 156.76 102.023 167.165 95.2716 175.636C85.427 176.48 75.5196 176.252 65.7241 174.957" stroke="#363939" stroke-linecap="round" stroke-linejoin="round"/>
<path d="M150.132 168.835C145.934 172.167 140.847 174.187 135.507 174.64C130.167 175.093 124.812 173.96 120.113 171.382C116.714 177.755 112.935 183.918 108.799 189.839C107.432 191.9 105.398 193.428 103.039 194.169C90.2733 198.09 77.1493 200.732 63.8608 202.058" stroke="#363939" stroke-linecap="round" stroke-linejoin="round"/>
<path d="M138.274 174.305C142.824 181.589 147.659 185.983 150.35 184.735C158.675 180.872 139.303 138.967 130.845 142.869C128.957 143.741 128.522 147.176 129.316 151.945" stroke="#363939" stroke-linecap="round" stroke-linejoin="round"/>
<path d="M214.43 87.9131C214.672 95.3662 215.591 122.3 215.591 125.083C211.332 125.736 177.719 133.819 175.808 134.157" stroke="#363939" stroke-linecap="round" stroke-linejoin="round"/>
<path d="M189.505 163.608C240.542 145.65 239.424 146.499 240.449 132.488C241.1 123.559 240.038 97.9555 239.409 87.8889" stroke="#363939" stroke-linecap="round" stroke-linejoin="round"/>
<path d="M163.199 75.0383C166.877 81.5235 181.539 105.772 182.85 108.216C181.449 109.256 175.034 116.202 169.732 121.187" stroke="#363939" stroke-linecap="round" stroke-linejoin="round"/>
<path d="M201.774 128.108C211.768 112.644 209.828 108.799 206.741 102.36C202.742 94.038 189.559 70.4649 184.671 62.5278" stroke="#363939" stroke-linecap="round" stroke-linejoin="round"/>
<path d="M169.062 20.5C164.754 28.2193 160.253 45.9338 159.892 53.9689C161.174 56.0245 162.408 58.0572 163.594 60.0669C167.024 57.0429 170.902 54.5691 175.089 52.7335C175.11 50.4971 175.764 40.1886 169.062 20.5Z" stroke="#363939" stroke-linecap="round" stroke-linejoin="round"/>
<path d="M56.0601 69.4116C57.3724 66.3427 59.6482 63.7844 62.5433 62.1233C65.4385 60.4623 68.7955 59.7888 72.1074 60.2048L136.744 68.529C139.545 68.8882 142.208 69.9514 144.485 71.6192C146.763 73.2868 148.581 75.5048 149.769 78.0658L229.167 249.446" stroke="#363939" stroke-linecap="round" stroke-linejoin="round"/>
<path d="M69.4047 76.9983C70.2963 78.9342 69.9855 80.9911 68.703 81.596C67.4205 82.201 65.6298 81.1121 64.7344 79.1762C63.8391 77.2403 64.1486 75.1733 65.4362 74.5785C66.7238 73.9837 68.5132 75.0625 69.4047 76.9983Z" stroke="#363939" stroke-linecap="round" stroke-linejoin="round"/>
<path d="M29.0864 87.3081L35.5474 101.295" stroke="#363939" stroke-linecap="round" stroke-linejoin="round"/>
<path d="M39.2979 91.0588L25.3354 97.544" stroke="#363939" stroke-linecap="round" stroke-linejoin="round"/>
<path d="M214.769 97.6167C222.941 100.3 231.306 100.037 239.913 97.6167" stroke="#363939" stroke-linecap="round" stroke-linejoin="round"/>
<path d="M168.152 83.4809C176.549 81.8796 184.109 77.3596 189.494 70.7207" stroke="#363939" stroke-linecap="round" stroke-linejoin="round"/>
<path d="M121.649 18.726L104.927 25.7448L119.786 15.3382L115.938 8.3449C115.812 8.11774 115.633 7.92413 115.417 7.78028C115.2 7.63641 114.953 7.54651 114.695 7.51807C114.436 7.48963 114.175 7.52351 113.932 7.61684C113.69 7.71017 113.473 7.86026 113.301 8.05452L93.1905 30.4393C92.9689 30.6907 92.8302 31.0044 92.7935 31.3376C92.7567 31.6708 92.8236 32.0071 92.985 32.3008C93.1465 32.5946 93.3946 32.8314 93.6955 32.9789C93.9965 33.1265 94.3356 33.1776 94.6666 33.1253L124.359 28.1163C124.615 28.0746 124.856 27.9726 125.064 27.8185C125.271 27.6644 125.439 27.4628 125.553 27.2306C125.666 26.9984 125.723 26.7423 125.717 26.4839C125.712 26.2254 125.644 25.9719 125.521 25.7448L121.649 18.726Z" stroke="#363939" stroke-linecap="round" stroke-linejoin="round"/>
<path d="M223.286 205.91C234.951 212.177 237.395 194.293 249.059 200.56" stroke="#FFD54F" stroke-linecap="round" stroke-linejoin="round"/>
<path d="M55.6577 173.458C51.014 172.371 46.5654 170.576 42.4683 168.135C40 166.78 39.0741 168.142 41.4761 170.264C43.7005 172.15 46.1175 173.798 48.6873 175.178" stroke="#363939" stroke-linecap="round" stroke-linejoin="round"/>
<path d="M46.4799 173.917C43.8619 173.08 41.2998 172.078 38.809 170.916C36.3204 169.603 35.5932 171.298 38.1314 173.239C41.2115 175.338 44.4474 177.2 47.8108 178.806" stroke="#363939" stroke-linecap="round" stroke-linejoin="round"/>
<path d="M44.138 176.967C42.2392 176.526 40.3652 175.985 38.524 175.346C35.922 174.37 35.3807 176.186 38.1126 177.741C41.0024 179.243 44.0137 180.497 47.1144 181.492" stroke="#363939" stroke-linecap="round" stroke-linejoin="round"/>
<path d="M68.2889 191.341C67.6113 191.559 55.7287 188.293 48.7353 185.582C45.9334 184.493 43.0041 183.399 40.2659 182.049C37.5098 180.688 37.6728 179.328 40.3385 179.943C41.3051 180.166 42.4437 180.306 44.307 180.548" stroke="#363939" stroke-linecap="round" stroke-linejoin="round"/>
<path d="M60.1814 189.332C59.8426 196.326 61.2232 201.935 63.3768 202.109C68.7654 202.546 70.8911 175.841 65.5305 174.91C61.6261 174.039 58.0657 172.034 55.2946 169.15C49.9875 163.348 48.3241 164.6 53.3587 172.707" stroke="#363939" stroke-linecap="round" stroke-linejoin="round"/>
<path d="M119.568 214.379C117.291 215.407 115.363 217.077 114.021 219.183C112.678 221.29 111.98 223.744 112.012 226.241C112.044 228.739 112.804 231.174 114.2 233.246C115.595 235.318 117.565 236.938 119.868 237.908C122.17 238.877 124.706 239.152 127.163 238.701C129.621 238.25 131.893 237.091 133.701 235.368C135.509 233.644 136.775 231.43 137.343 228.996C137.912 226.564 137.756 224.018 136.899 221.672C136.291 220.016 135.348 218.503 134.131 217.228C132.913 215.952 131.446 214.941 129.819 214.257C128.194 213.573 126.445 213.23 124.681 213.252C122.917 213.272 121.177 213.657 119.568 214.379Z" stroke="#363939" stroke-linecap="round" stroke-linejoin="round"/>
<path d="M181.065 62.9709C183.219 62.2692 184.738 62.1507 185.106 62.7773C186.125 64.5145 178.73 69.4 176.995 70.4635C174.702 71.8645 164.807 77.3613 163.569 75.2153C163.021 74.2665 165.287 71.8759 168.989 69.2867" stroke="#363939" stroke-linecap="round" stroke-linejoin="round"/>
<path d="M175.089 52.7334C170.903 54.5489 167.032 57.0159 163.617 60.0426C166.303 64.5919 169.11 69.3399 171.265 73.5427C175.468 71.6168 179.391 69.132 182.929 66.1559L175.089 52.7334Z" stroke="#363939" stroke-linecap="round" stroke-linejoin="round"/>
<path d="M240.886 41.1909C234.909 46.3452 224.067 63.5515 222.059 69.7705C222.422 72.7711 222.712 74.9006 222.906 76.7154C227.362 77.311 231.883 77.2212 236.313 76.4493L236.264 74.465C241.443 57.5503 241.636 50.2895 240.886 41.1909Z" stroke="#363939" stroke-linecap="round" stroke-linejoin="round"/>
<path d="M236.313 76.4492C231.883 77.2211 227.362 77.3109 222.906 76.7154C223.354 81.3242 223.427 85.9617 223.124 90.5824C227.646 90.9605 232.199 90.7081 236.652 89.8322C236.317 76.318 236.379 78.7366 236.313 76.4492Z" stroke="#363939" stroke-linecap="round" stroke-linejoin="round"/>
<path d="M210.774 62.6244C210.38 62.9283 209.903 63.1082 209.407 63.1416C208.91 63.175 208.413 63.0601 207.981 62.8116C207.55 62.5631 207.201 62.1921 206.98 61.7456C206.759 61.2991 206.676 60.797 206.74 60.303C206.805 59.8088 207.013 59.345 207.341 58.9699C207.669 58.5948 208.101 58.3253 208.582 58.1957C209.063 58.066 209.572 58.082 210.045 58.2413C210.516 58.4007 210.93 58.6966 211.234 59.0914C211.638 59.6221 211.817 60.2909 211.731 60.9525C211.644 61.614 211.3 62.2149 210.774 62.6244Z" stroke="#FFD54F" stroke-linecap="round" stroke-linejoin="round"/>
<path d="M133.748 124.067C133.636 124.85 133.271 125.575 132.706 126.13C132.142 126.686 131.411 127.04 130.627 127.14C131.398 127.51 132.014 128.142 132.361 128.924C132.709 129.705 132.768 130.586 132.527 131.407C132.285 132.228 131.759 132.936 131.043 133.405C130.326 133.872 129.468 134.071 128.618 133.964C128.916 134.343 129.134 134.779 129.259 135.245C129.384 135.71 129.413 136.197 129.344 136.674C129.279 137.143 129.122 137.594 128.883 138.002C128.644 138.41 128.326 138.768 127.948 139.053C127.57 139.338 127.141 139.546 126.683 139.666C126.224 139.784 125.747 139.812 125.279 139.747C124.936 139.699 124.601 139.602 124.287 139.457C124.415 139.938 124.448 140.439 124.383 140.933C124.294 141.597 124.021 142.222 123.595 142.739C123.17 143.255 122.608 143.642 121.973 143.856C121.339 144.07 120.658 144.102 120.006 143.949C119.354 143.796 118.758 143.464 118.285 142.99C118.289 143.096 118.281 143.201 118.261 143.304C118.126 144.249 117.622 145.103 116.861 145.677C116.1 146.253 115.142 146.505 114.196 146.378C113.493 146.285 112.835 145.982 112.308 145.507C110.687 142.458 110.876 139.648 111.29 139.239C115.238 135.372 111.868 131.736 110.006 134.496C109.234 135.643 108.64 136.041 108.237 134.779C106.842 130.419 100.745 124.612 99.0923 136.481C98.6709 138.795 98.6872 141.167 99.1407 143.475C98.6656 143.085 98.2985 142.58 98.0739 142.008C97.8494 141.436 97.7751 140.816 97.8582 140.207C97.8777 140.059 97.91 139.914 97.955 139.772C97.305 140.099 96.5695 140.217 95.8497 140.11C94.9071 139.97 94.0572 139.466 93.4825 138.706C92.9078 137.945 92.6544 136.99 92.7765 136.045C92.8566 135.5 93.0548 134.978 93.3573 134.517C93.0605 134.541 92.7624 134.541 92.4657 134.517C91.7416 134.419 91.0647 134.101 90.5252 133.609C89.9858 133.116 89.6094 132.469 89.4464 131.757C89.2835 131.045 89.3416 130.3 89.6129 129.621C89.8843 128.942 90.3562 128.362 90.9654 127.959C90.1265 127.794 89.3734 127.337 88.8404 126.668C88.3074 126 88.0293 125.164 88.0554 124.309C88.0815 123.455 88.4104 122.637 88.9832 122.003C89.5561 121.368 90.3358 120.958 91.1832 120.845C90.414 120.476 89.8006 119.846 89.4524 119.067C89.1043 118.288 89.044 117.411 89.2821 116.591C89.5204 115.772 90.0417 115.064 90.7533 114.593C91.4648 114.122 92.3203 113.919 93.1675 114.021C92.7192 113.458 92.45 112.773 92.3946 112.055C92.339 111.338 92.4999 110.62 92.8564 109.995C93.2127 109.37 93.7484 108.866 94.3941 108.548C95.0398 108.23 95.7659 108.113 96.4789 108.212C96.8148 108.257 97.1415 108.355 97.4468 108.502C97.3031 108.016 97.2619 107.505 97.3258 107.002C97.3883 106.532 97.5435 106.079 97.7821 105.67C98.0209 105.26 98.3386 104.902 98.7167 104.616C99.0948 104.33 99.526 104.122 99.985 104.004C100.444 103.886 100.922 103.861 101.391 103.929C102.148 104.04 102.851 104.387 103.4 104.921C103.442 104.094 103.767 103.307 104.321 102.693C104.875 102.078 105.624 101.672 106.442 101.545C107.259 101.417 108.096 101.574 108.811 101.991C109.527 102.408 110.076 103.057 110.369 103.832C111.656 99.8531 117.684 100.943 117.628 104.993C118.124 104.38 118.807 103.945 119.573 103.756C120.339 103.567 121.146 103.634 121.87 103.947C122.594 104.26 123.196 104.801 123.584 105.488C123.971 106.175 124.123 106.97 124.017 107.752C123.998 107.908 123.966 108.062 123.92 108.212C124.563 107.89 125.289 107.772 126.001 107.873C126.947 108.008 127.801 108.512 128.378 109.274C128.954 110.037 129.205 110.996 129.078 111.943C129.008 112.496 128.8 113.021 128.473 113.472C128.763 113.446 129.055 113.453 129.344 113.495C130.287 113.635 131.136 114.14 131.712 114.9C132.286 115.66 132.54 116.616 132.417 117.561C132.347 118.071 132.168 118.559 131.893 118.993C131.617 119.428 131.251 119.797 130.82 120.078C131.731 120.232 132.546 120.735 133.092 121.479C133.639 122.224 133.874 123.152 133.748 124.067Z" stroke="#363939" stroke-linecap="round" stroke-linejoin="round"/>
<path d="M34.894 159.761L40.4113 171.618" stroke="#363939" stroke-linecap="round" stroke-linejoin="round"/>
<path d="M46.4849 184.662L57.6174 208.571" stroke="#363939" stroke-linecap="round" stroke-linejoin="round"/>
<path d="M41.3306 156.76L47.9125 170.892" stroke="#363939" stroke-linecap="round" stroke-linejoin="round"/>
<path d="M55.8755 188.026L61.1507 199.35" stroke="#363939" stroke-linecap="round" stroke-linejoin="round"/>
<path d="M61.9731 201.069L64.0542 205.571" stroke="#363939" stroke-linecap="round" stroke-linejoin="round"/>
<path d="M222.873 85.4207C220.745 85.5671 213.576 86.3491 214.508 88.2506C215.483 90.2285 224.952 90.5787 227.351 90.5724C236.929 90.5482 243.833 87.9144 236.184 86.1224" stroke="#363939" stroke-linecap="round" stroke-linejoin="round"/>
<path d="M120.489 171.548C121.446 169.652 122.304 167.707 123.059 165.721V172.811" stroke="#363939" stroke-linecap="round" stroke-linejoin="round"/>
</svg>
