<svg width="243" height="243" viewBox="0 0 243 243" fill="none" xmlns="http://www.w3.org/2000/svg">
<path d="M167.138 66.1422C166.46 61.696 162.724 57.1036 159.231 54.8805C158.867 54.6368 158.504 54.4161 158.14 54.1968C150.233 59.7128 135.775 68.6347 118.796 71.3465C117.487 71.5659 115.886 71.2477 114.891 72.1521C111.763 74.9614 111.132 84.7826 103.395 85.0019C102.326 87.7394 101.357 90.3768 100.313 92.6243C101.578 90.8399 110.821 92.5319 113.169 93.0643C115.472 93.5774 125.405 96.3034 124.982 98.4392C126.728 94.6511 126.049 90.8168 124.91 86.8094C138.76 84.1232 157.946 74.2533 167.138 66.1422Z" fill="url(#paint0_linear_83_3239)"/>
<path d="M46.0048 107.356C43.5413 109.741 40.431 111.336 37.0671 111.941C33.7033 112.545 30.2369 112.132 27.1066 110.752C23.9763 109.372 21.3224 107.089 19.4807 104.19C17.639 101.291 16.6921 97.9076 16.7597 94.4668C16.8275 91.0261 17.9067 87.6828 19.861 84.8598C21.8152 82.0368 24.5568 79.8609 27.739 78.6072C30.9212 77.3535 34.401 77.0785 37.7384 77.8166C41.0759 78.5549 44.121 80.2732 46.4888 82.7545C48.0623 84.4011 49.2981 86.3439 50.1255 88.4719C50.9529 90.6 51.3556 92.8714 51.3108 95.1563C51.2658 97.4413 50.7741 99.6947 49.8635 101.788C48.9531 103.881 47.6418 105.774 46.0048 107.356Z" fill="#1E88E5"/>
<path d="M231.659 175.734C233.405 169.651 239.227 171.507 242.429 167.843C243.012 173.438 239.955 179.057 234.424 179.325L231.659 175.734Z" fill="#1E88E5"/>
<path d="M100.022 187.777C97.8145 189.073 93.6916 186.385 89.1802 181.254C89.259 183.024 89.7577 184.751 90.6347 186.288C93.6916 192.053 93.5464 206.271 96.942 205.273C97.8883 204.98 99.0041 200.142 99.9988 194.598C100.514 191.919 101.194 189.275 102.037 186.682C101.615 186.898 100.445 187.494 100.022 187.777Z" fill="#737373"/>
<path d="M114.139 65.2632C114.585 66.5674 115.24 67.7888 116.08 68.8781C118.214 68.5613 120.585 67.9096 121.027 66.9244C121.105 66.7584 121.17 66.5869 121.222 66.4113C120.664 68.1944 117.438 66.9975 114.139 65.2632Z" fill="#737373"/>
<path d="M117.001 52.1442C112.707 47.6006 98.7122 51.1667 89.2284 58.081C79.6961 65.0184 82.4371 71.5171 94.7829 68.5371C94.0556 68.7565 86.1473 71.1502 80.9813 77.1319C73.3889 85.9267 79.9865 89.2979 88.496 87.5392C98.6587 85.438 107.391 77.0344 110.35 71.2194C111.709 67.7935 112.631 64.2075 113.093 60.5478C109.553 57.641 111.711 55.0023 113.651 57.006C114.694 58.081 115.859 57.5679 114.573 54.0556C115.869 53.2462 117.424 52.987 117.001 52.1442Z" fill="#737373"/>
<path d="M149.383 194.178C148.935 188.377 149 182.548 149.577 176.759C144.975 178.068 140.093 177.992 135.533 176.54C135.63 180.596 134.369 182.647 135.412 185.164C136.039 186.575 136.928 187.852 138.031 188.925C142.592 193.568 146.497 207.247 149.48 205.294C150.305 204.754 149.99 199.797 149.383 194.178Z" fill="#737373"/>
<path d="M103.757 91.843C103.539 92.9768 103.198 94.0829 102.738 95.1411C98.7848 93.1617 99.707 91.8674 103.757 91.843Z" fill="#737373"/>
<path d="M125.006 98.4098C124.908 98.8741 124.254 99.1679 123.162 99.3077C123.575 98.5509 123.939 97.8659 124.254 97.1821C124.812 97.6568 125.078 98.0724 125.006 98.4098Z" fill="#737373"/>
<path d="M135.872 135.889L133.324 143.242C133.228 140.384 133.131 137.575 133.081 134.814L135.872 135.889Z" fill="#737373"/>
<path d="M48.761 187.802C42.2474 176.572 33.6042 167.007 29.5208 168.592C23.9942 170.736 31.4924 187.936 35.7924 195.448C43.0205 208.054 51.7529 216.604 55.3956 214.631C60.6903 211.66 52.0407 193.455 48.761 187.802Z" fill="#737373"/>
<path d="M93.5464 161.345C86.3667 148.837 77.6585 140.384 74.068 142.488C70.4546 144.588 73.3649 156.413 80.5205 168.92C87.676 181.427 96.4084 189.857 99.9976 187.777C103.612 185.677 100.702 173.852 93.5464 161.345Z" fill="#737373"/>
<path d="M102.035 186.678C101.195 189.272 100.515 191.915 99.9974 194.594C99.0141 200.141 97.8894 204.985 96.9405 205.269C93.5513 206.296 93.6786 192.057 90.6333 186.284C89.7544 184.748 89.2555 183.022 89.1787 181.25" stroke="#363939" stroke-linecap="round" stroke-linejoin="round"/>
<path d="M185.985 94.7498C185.501 93.9609 184.851 93.2888 184.081 92.7811C183.31 92.2733 182.439 91.9425 181.527 91.8119C180.615 91.6813 179.687 91.7542 178.806 92.0252C177.926 92.2964 177.115 92.7593 176.432 93.381C176.162 92.4531 175.682 91.6003 175.033 90.8889C174.382 90.1776 173.577 89.6269 172.68 89.2795C171.785 88.932 170.82 88.7973 169.864 88.8857C168.907 88.9741 167.985 89.2833 167.166 89.7892C166.458 90.2283 165.843 90.8039 165.356 91.483C164.869 92.1621 164.52 92.9314 164.328 93.7466C163.321 92.9818 162.108 92.5412 160.849 92.4827C159.589 92.4242 158.341 92.7504 157.268 93.4185C156.196 94.0867 155.349 95.0657 154.838 96.2272C154.328 97.3885 154.179 98.6782 154.408 99.9272C153.589 99.7111 152.735 99.6626 151.899 99.7844C151.061 99.9062 150.257 100.196 149.532 100.637C148.714 101.142 148.024 101.83 147.512 102.647C147 103.464 146.682 104.389 146.581 105.349C146.48 106.31 146.6 107.281 146.931 108.188C147.261 109.095 147.795 109.913 148.489 110.58C147.638 110.917 146.871 111.438 146.242 112.105C145.613 112.773 145.135 113.571 144.845 114.443C144.553 115.316 144.455 116.242 144.557 117.157C144.658 118.072 144.957 118.954 145.432 119.74C146.096 120.845 147.088 121.713 148.266 122.221C149.446 122.729 150.754 122.852 152.006 122.574L185.866 101.664C186.719 101.147 187.754 97.6271 185.985 94.7498Z" stroke="#FFD54F" stroke-linecap="round" stroke-linejoin="round"/>
<path d="M160.299 104.448C161.099 105.207 161.614 106.221 161.76 107.318C161.905 108.416 161.671 109.53 161.095 110.474C160.519 111.417 159.639 112.133 158.602 112.499C157.564 112.865 156.433 112.861 155.399 112.486" stroke="#FFD54F" stroke-linecap="round" stroke-linejoin="round"/>
<path d="M175.385 100.149C175.25 101.137 174.817 102.06 174.142 102.79C173.467 103.52 172.584 104.022 171.616 104.228C170.647 104.434 169.638 104.333 168.728 103.94C167.818 103.546 167.052 102.879 166.532 102.03C166.312 101.663 166.141 101.269 166.022 100.857" stroke="#FFD54F" stroke-linecap="round" stroke-linejoin="round"/>
<path d="M176.429 93.3811C175.777 94.0006 175.235 94.7283 174.828 95.5324" stroke="#FFD54F" stroke-linecap="round" stroke-linejoin="round"/>
<path d="M150.698 110.168C149.945 110.206 149.201 110.345 148.485 110.581" stroke="#FFD54F" stroke-linecap="round" stroke-linejoin="round"/>
<path d="M164.325 93.748C164.166 94.5441 164.14 95.3613 164.247 96.1661" stroke="#FFD54F" stroke-linecap="round" stroke-linejoin="round"/>
<path d="M156.808 101.061C156.08 100.543 155.267 100.159 154.404 99.9285" stroke="#FFD54F" stroke-linecap="round" stroke-linejoin="round"/>
<path d="M194.621 108.87C192.821 105.885 189.107 105.352 188.46 105.841L154.574 126.778C153.604 127.364 152.273 130.911 154.114 133.91C154.593 134.694 155.236 135.363 155.998 135.87C156.761 136.378 157.624 136.71 158.528 136.845C159.433 136.978 160.355 136.912 161.231 136.649C162.106 136.386 162.915 135.933 163.598 135.321C163.986 136.667 164.812 137.843 165.94 138.663C167.069 139.482 168.436 139.898 169.827 139.845C171.218 139.792 172.552 139.272 173.615 138.368C174.679 137.465 175.411 136.228 175.698 134.857C176.699 135.629 177.909 136.079 179.169 136.147C180.428 136.216 181.679 135.9 182.758 135.239C183.835 134.578 184.69 133.606 185.21 132.448C185.728 131.289 185.887 130 185.667 128.749C187.011 129.092 188.429 128.975 189.701 128.418C190.972 127.86 192.024 126.893 192.69 125.669C193.356 124.444 193.599 123.032 193.382 121.651C193.164 120.273 192.498 119.006 191.488 118.049C192.347 117.721 193.126 117.206 193.766 116.54C194.406 115.875 194.893 115.076 195.193 114.2C195.491 113.323 195.595 112.392 195.496 111.471C195.398 110.549 195.098 109.661 194.621 108.87Z" stroke="#FFD54F" stroke-linecap="round" stroke-linejoin="round"/>
<path d="M174.367 127.559C174.117 126.708 173.641 125.944 172.989 125.348C172.336 124.753 171.535 124.35 170.671 124.184C169.806 124.017 168.913 124.094 168.089 124.404C167.265 124.716 166.541 125.248 165.999 125.946C165.468 126.635 165.125 127.452 165.004 128.316" stroke="#FFD54F" stroke-linecap="round" stroke-linejoin="round"/>
<path d="M185.016 115.984C184.082 115.659 183.071 115.633 182.121 115.907C181.172 116.182 180.329 116.745 179.708 117.52C179.088 118.294 178.719 119.242 178.654 120.236C178.588 121.229 178.827 122.218 179.339 123.069C179.558 123.438 179.828 123.776 180.14 124.071" stroke="#FFD54F" stroke-linecap="round" stroke-linejoin="round"/>
<path d="M191.491 118.056C190.636 118.374 189.733 118.539 188.823 118.544" stroke="#FFD54F" stroke-linecap="round" stroke-linejoin="round"/>
<path d="M164.94 133.558C164.577 134.21 164.125 134.807 163.598 135.332" stroke="#FFD54F" stroke-linecap="round" stroke-linejoin="round"/>
<path d="M185.67 128.756C184.89 128.53 184.151 128.177 183.483 127.711" stroke="#FFD54F" stroke-linecap="round" stroke-linejoin="round"/>
<path d="M175.77 132.246C175.886 133.117 175.862 134 175.701 134.863" stroke="#FFD54F" stroke-linecap="round" stroke-linejoin="round"/>
<path d="M154.573 126.777L150.96 128.975" stroke="#FFD54F" stroke-linecap="round" stroke-linejoin="round"/>
<path d="M152.003 122.575L148.437 124.749" stroke="#FFD54F" stroke-linecap="round" stroke-linejoin="round"/>
<path d="M133.205 139.847L94.686 163.396" stroke="#737373" stroke-linecap="round" stroke-linejoin="round"/>
<path d="M132.428 134.545L92.2358 159.146" stroke="#737373" stroke-linecap="round" stroke-linejoin="round"/>
<path d="M166.629 66.5822C175.256 65.7785 183.929 67.5022 191.606 71.5458C199.282 75.5893 205.637 81.7806 209.902 89.3749C222.787 111.676 216.038 140.479 194.838 153.698C181.578 161.967 177.898 157.595 152.148 164.987" stroke="#363939" stroke-linecap="round" stroke-linejoin="round"/>
<path d="M100.275 187.587C112.054 181.4 122.581 175.992 133.423 171.532" stroke="#363939" stroke-linecap="round" stroke-linejoin="round"/>
<path d="M101.622 121.671C93.4493 128.267 84.4978 134.692 74.0435 142.461" stroke="#363939" stroke-linecap="round" stroke-linejoin="round"/>
<path d="M136.746 83.3162C131.663 91.0137 125.959 98.2773 119.694 105.034" stroke="#363939" stroke-linecap="round" stroke-linejoin="round"/>
<path d="M158.116 54.2212C162.214 56.5417 166.387 61.3061 167.138 66.1422C157.945 74.2533 138.76 84.1232 124.91 86.8094C126.049 90.8168 126.728 94.6524 124.982 98.4392C125.405 96.3059 115.617 93.6146 113.169 93.0643C110.779 92.5268 101.568 90.8566 100.313 92.6243C101.357 90.3768 102.327 87.7381 103.395 85.0019C111.132 84.7826 111.75 74.9473 114.891 72.1521C115.88 71.2721 117.438 71.5672 118.796 71.3465C135.765 68.5667 150.233 59.7179 158.14 54.1968L158.116 54.2212Z" stroke="#363939" stroke-linecap="round" stroke-linejoin="round"/>
<path d="M101.702 96.9728C108.646 96.8616 115.485 98.691 121.459 102.258" stroke="#363939" stroke-linecap="round" stroke-linejoin="round"/>
<path d="M121.11 66.6718C120.319 68.0649 117.262 66.9053 114.139 65.2607C114.584 66.5651 115.24 67.7866 116.08 68.8757" stroke="#363939" stroke-linecap="round" stroke-linejoin="round"/>
<path d="M117.896 71.4373C116.206 71.0191 116.658 70.1905 116.08 68.8782C120.64 68.1996 121.43 67.3542 121.242 65.0528C120.968 61.7099 119.02 54.4261 117.001 52.144" stroke="#363939" stroke-linecap="round" stroke-linejoin="round"/>
<path d="M124.909 86.8093C123.502 87.0787 122.144 87.2737 120.882 87.3969" stroke="#363939" stroke-linecap="round" stroke-linejoin="round"/>
<path d="M114.576 54.0505C115.861 57.5679 114.703 58.0811 113.654 57.0009C111.713 54.9985 109.555 57.6423 113.096 60.5427C112.634 64.2037 111.713 67.7908 110.355 71.2182C107.396 77.0331 98.6639 85.4367 88.5012 87.538C79.9867 89.2967 73.389 85.9255 80.9865 77.1306C86.1526 71.1451 94.0608 68.7514 94.7881 68.5359C82.4423 71.5158 79.7039 65.021 89.2336 58.0798C98.72 51.1693 112.713 47.5993 117.006 52.143C117.416 52.9794 115.823 53.2744 114.576 54.0505Z" stroke="#363939" stroke-linecap="round" stroke-linejoin="round"/>
<path d="M103.395 85.0017C104.676 81.5107 106.327 78.169 108.319 75.0344C109.106 73.8476 109.78 72.5882 110.331 71.2732" stroke="#363939" stroke-linecap="round" stroke-linejoin="round"/>
<path d="M119.73 104.996C121.413 102.501 122.927 99.8962 124.266 97.1987" stroke="#363939" stroke-linecap="round" stroke-linejoin="round"/>
<path d="M172.427 53.0243C176.089 52.1443 179.103 53.8068 178.854 55.223C178.798 55.5069 178.682 55.7755 178.515 56.0111C178.347 56.2469 178.133 56.4442 177.884 56.5904" stroke="#363939" stroke-linecap="round" stroke-linejoin="round"/>
<path d="M172.086 50.7767C175.943 49.8479 179.776 51.8029 178.126 53.8554" stroke="#363939" stroke-linecap="round" stroke-linejoin="round"/>
<path d="M166.726 64.3836C169.008 61.7598 171.936 59.7883 175.216 58.6675" stroke="#363939" stroke-linecap="round" stroke-linejoin="round"/>
<path d="M172.28 55.6616C175.846 54.9292 178.195 56.3454 178.054 57.7385C177.879 59.4485 174.487 62.0384 171.625 60.3772" stroke="#363939" stroke-linecap="round" stroke-linejoin="round"/>
<path d="M169.273 49.481C169.322 49.4323 170.802 47.3567 170.147 46.6961C169.589 46.1342 161.535 52.8035 159.28 54.9291" stroke="#363939" stroke-linecap="round" stroke-linejoin="round"/>
<path d="M173.905 50.5317C180.309 47.4299 182.029 43.688 180.819 44.3743C176.781 46.4101 172.634 48.2206 168.399 49.798C165.121 51.0542 162.041 52.7825 159.255 54.9292" stroke="#363939" stroke-linecap="round" stroke-linejoin="round"/>
<path d="M149.577 176.759C149.005 182.548 148.94 188.377 149.383 194.178C150.001 199.796 150.304 204.755 149.48 205.294C146.495 207.245 142.583 193.577 138.031 188.925C136.925 187.853 136.036 186.575 135.412 185.164C134.367 182.643 135.634 180.588 135.532 176.519" stroke="#363939" stroke-linecap="round" stroke-linejoin="round"/>
<path d="M93.5463 161.345C100.711 173.847 103.615 185.681 99.9975 187.771C96.4108 189.851 87.6759 181.42 80.5203 168.914C73.3648 156.408 70.457 144.59 74.0679 142.485C77.6788 140.38 86.3755 148.831 93.5463 161.345Z" stroke="#363939" stroke-linecap="round" stroke-linejoin="round"/>
<path d="M56.7305 207.745C54.9168 196.376 44.0141 177.46 35.162 170.629C30.5895 167.061 27.3148 167.692 27.6893 173.675C28.4 185.028 40.9522 206.931 50.3214 213.357C55.5231 216.924 57.7597 214.199 56.7305 207.745Z" stroke="#363939" stroke-linecap="round" stroke-linejoin="round"/>
<path d="M55.6362 214.503L62.8376 210.307C63.5314 209.759 64.003 208.975 64.1639 208.103C64.3248 207.231 64.1638 206.329 63.7114 205.567C66.5771 209.914 72.2005 205.426 69.9448 201.658C72.0374 205.25 78.6173 202.931 75.912 197.481C76.5251 198.282 77.399 198.837 78.3795 199.052C79.3599 199.267 80.3842 199.126 81.2716 198.654C84.2011 196.771 83.1146 193.108 81.2971 187.147C77.8974 176.909 72.5042 167.456 65.4334 159.342C63.734 157.304 61.7885 155.486 59.642 153.934C56.2476 151.814 52.4291 153.403 53.7423 159.172C52.6622 157.359 51.3949 156.174 49.2538 156.753C48.7132 156.904 48.2149 157.18 47.7977 157.557C47.3805 157.935 47.0558 158.405 46.8492 158.931C46.6425 159.455 46.5595 160.022 46.6066 160.586C46.6536 161.149 46.8295 161.693 47.1204 162.176C47.1204 162.176 44.6074 158.977 41.7595 161.249C41.0522 161.804 40.5757 162.605 40.4231 163.494C40.2705 164.384 40.4527 165.299 40.9341 166.061C40.7048 165.653 40.3976 165.296 40.0303 165.009C39.663 164.721 39.2429 164.511 38.7941 164.388C38.3454 164.265 37.877 164.234 37.4159 164.294C36.9549 164.354 36.5105 164.507 36.1081 164.742L29.3296 168.67" stroke="#363939" stroke-linecap="round" stroke-linejoin="round"/>
<path d="M231.659 175.734C228.667 177.398 225.799 179.276 223.073 181.353C215.067 187.581 207.258 195.399 208.299 196.768C209.339 198.137 218.804 192.521 226.829 186.288C229.519 184.158 232.049 181.831 234.398 179.325" fill="#A6A6A6"/>
<path d="M231.659 175.734C228.667 177.398 225.799 179.276 223.073 181.353C215.067 187.581 207.258 195.399 208.299 196.768C209.339 198.137 218.804 192.521 226.829 186.288C229.519 184.158 232.049 181.831 234.398 179.325" stroke="#363939" stroke-linecap="round" stroke-linejoin="round"/>
<path d="M231.659 175.734C233.405 169.651 239.227 171.507 242.429 167.842C243.012 173.438 239.955 179.057 234.424 179.325L231.659 175.734Z" stroke="#363939" stroke-linecap="round" stroke-linejoin="round"/>
<path d="M224.08 180.587L227.827 185.481" stroke="#363939" stroke-linecap="round" stroke-linejoin="round"/>
<path d="M237.36 58.7158L234.183 65.8854H240.003L236.801 73.0562" stroke="#363939" stroke-linecap="round" stroke-linejoin="round"/>
<path d="M124.253 235.806L111.35 236.196" stroke="#363939" stroke-linecap="round" stroke-linejoin="round"/>
<path d="M117.996 242.5L117.607 229.503" stroke="#363939" stroke-linecap="round" stroke-linejoin="round"/>
<path d="M103.757 91.843C103.539 92.9768 103.198 94.0828 102.738 95.1411C98.7848 93.1617 99.707 91.8674 103.757 91.843Z" stroke="#363939" stroke-linecap="round" stroke-linejoin="round"/>
<path d="M124.982 98.4392C124.865 98.8818 124.242 99.1704 123.188 99.3141" stroke="#363939" stroke-linecap="round" stroke-linejoin="round"/>
<path d="M103.758 91.843C103.36 94.6184 101.961 97.1489 99.8283 98.951C90.2961 106.573 90.1483 117.249 97.1115 125.238" stroke="#363939" stroke-linecap="round" stroke-linejoin="round"/>
<path d="M28.9055 168.937L18.1582 175.073" stroke="#363939" stroke-linecap="round" stroke-linejoin="round"/>
<path d="M55.1437 214.771L45.4956 220.44" stroke="#363939" stroke-linecap="round" stroke-linejoin="round"/>
<path d="M40.8377 223.395L33.6821 227.598" stroke="#363939" stroke-linecap="round" stroke-linejoin="round"/>
<path d="M13.1616 178.225L5.86084 182.403" stroke="#363939" stroke-linecap="round" stroke-linejoin="round"/>
<path d="M35.8165 195.448L12.312 209.446" stroke="#363939" stroke-linecap="round" stroke-linejoin="round"/>
<path d="M7.63135 212.403L0.5 216.58" stroke="#363939" stroke-linecap="round" stroke-linejoin="round"/>
<path d="M46.0048 107.356C43.5413 109.741 40.431 111.336 37.0671 111.941C33.7033 112.545 30.2369 112.131 27.1066 110.752C23.9763 109.372 21.3224 107.088 19.4807 104.19C17.639 101.291 16.6921 97.9073 16.7597 94.4666C16.8275 91.0259 17.9067 87.6825 19.861 84.8596C21.8152 82.0365 24.5568 79.8606 27.739 78.607C30.9212 77.3533 34.401 77.0783 37.7384 77.8164C41.0759 78.5546 44.121 80.2729 46.4888 82.7543C48.0623 84.4009 49.2981 86.3437 50.1255 88.4717C50.9529 90.5997 51.3556 92.8712 51.3108 95.1561C51.2658 97.441 50.7741 99.6945 49.8635 101.788C48.9531 103.881 47.6418 105.773 46.0048 107.356Z" stroke="#363939" stroke-linecap="round" stroke-linejoin="round"/>
<path d="M51.2917 95.844C56.6526 98.4096 59.8253 100.847 59.3694 102.386C58.5529 105.166 46.4886 104.096 32.3966 99.9913C18.3046 95.8864 7.53049 90.3023 8.33419 87.5187C8.79271 85.9293 12.8698 85.588 18.9057 86.3462" stroke="#363939" stroke-linecap="round" stroke-linejoin="round"/>
<path d="M98.064 114C98.767 118.446 101.248 122.522 104.589 123.577C115.022 126.863 133.089 134.839 133.089 134.839C133.314 147.42 134.445 161.264 133.235 175.734C139.02 178.187 145.514 178.334 151.403 176.149C152.422 162.493 153.076 149.398 152.834 137.305C152.779 134.296 152.087 131.334 150.803 128.616C149.518 125.899 147.673 123.488 145.388 121.549C135.961 113.7 125.451 107.273 114.188 102.47" stroke="#363939" stroke-linecap="round" stroke-linejoin="round"/>
<path d="M133.083 134.839L135.872 135.889L133.326 143.242" stroke="#363939" stroke-linecap="round" stroke-linejoin="round"/>
<path d="M133.739 166.084C139.636 168.122 145.985 168.435 152.052 166.988" stroke="#363939" stroke-linecap="round" stroke-linejoin="round"/>
<path d="M128.402 0.5V4.58058" stroke="#363939" stroke-linecap="round" stroke-linejoin="round"/>
<path d="M136.284 8.43945H132.233" stroke="#363939" stroke-linecap="round" stroke-linejoin="round"/>
<path d="M128.402 16.3799V12.2993" stroke="#363939" stroke-linecap="round" stroke-linejoin="round"/>
<path d="M120.519 8.43945H124.572" stroke="#363939" stroke-linecap="round" stroke-linejoin="round"/>
<path d="M132.233 8.43924C131.73 8.44052 131.231 8.34175 130.766 8.1483C130.3 7.95485 129.877 7.67058 129.521 7.31204C129.165 6.9535 128.883 6.52761 128.691 6.05875C128.499 5.59004 128.4 5.08767 128.402 4.58057C128.403 5.08757 128.305 5.58983 128.113 6.05849C127.922 6.52723 127.639 6.95299 127.283 7.31166C126.927 7.6702 126.504 7.95434 126.039 8.14791C125.574 8.34136 125.075 8.44039 124.572 8.43924C125.075 8.43808 125.574 8.53711 126.039 8.73069C126.505 8.92426 126.928 9.20853 127.283 9.56733C127.639 9.926 127.922 10.352 128.114 10.8209C128.305 11.2896 128.403 11.7921 128.402 12.2992C128.4 11.792 128.499 11.2895 128.691 10.8205C128.882 10.3516 129.165 9.92549 129.52 9.56682C129.877 9.20815 130.3 8.92388 130.764 8.7303C131.231 8.53673 131.73 8.43783 132.233 8.43924Z" stroke="#363939" stroke-linecap="round" stroke-linejoin="round"/>
<defs>
<linearGradient id="paint0_linear_83_3239" x1="133.726" y1="54.1968" x2="133.726" y2="98.4392" gradientUnits="userSpaceOnUse">
<stop stop-color="#1E88E5"/>
<stop offset="1" stop-color="#B2D6FF"/>
</linearGradient>
</defs>
</svg>
