<svg width="291" height="170" viewBox="0 0 291 170" fill="none" xmlns="http://www.w3.org/2000/svg">
<path d="M290.5 84.3794C290.5 84.3794 210.269 59.1044 145.67 0C145.67 0 65.0907 53.76 0.5 66.9312C0.5 66.9312 51.8336 81.5254 69.1768 95.7718L70.8718 90.4274C70.8718 90.4274 45.886 73.6986 34.3239 69.0658C34.3239 69.0658 89.1458 47.712 145.322 9.25778C145.322 9.25778 207.711 65.0654 290.5 84.3794Z" fill="#1E88E5"/>
<path d="M216.383 125.316L66.4531 126.028V71.5561C66.4531 71.5561 123.235 39.5214 216.723 72.987C216.723 72.987 138.868 48.4155 73.5962 75.8331V116.414L216.383 125.316Z" fill="#1E88E5"/>
<path d="M71.2126 82.5926C71.2126 82.5926 117.106 63.0176 182.044 77.6118C182.044 77.6118 120.253 67.9983 71.0386 89.0912L71.2126 82.5926Z" fill="#1E88E5"/>
<path d="M70.7891 94.7043C70.7891 94.7043 114.987 81.5252 157.823 88.6484C157.823 88.6484 113.368 85.8892 70.7891 100.839V94.7043Z" fill="#1E88E5"/>
<path d="M72.5747 104.579C72.5747 104.579 107.254 99.2423 137.847 103.156C137.847 103.156 96.032 103.512 71.5532 109.923L72.5747 104.579Z" fill="#1E88E5"/>
<path d="M54.7247 116.414C54.7247 120.153 51.8342 123.181 48.2626 123.181C44.6986 123.181 41.8081 120.153 41.8081 116.414C41.8081 112.682 44.6986 109.654 48.2626 109.654C51.8342 109.654 54.7247 112.682 54.7247 116.414Z" fill="#1E88E5"/>
<path d="M48.2617 106.682C49.0183 106.682 49.7372 106.792 50.4409 106.974L48.4357 67.6426L46.6953 106.84C47.2099 106.753 47.7244 106.682 48.2617 106.682Z" fill="#1E88E5"/>
<mask id="mask0_121_2439" style="mask-type:luminance" maskUnits="userSpaceOnUse" x="34" y="125" width="27" height="46">
<path d="M34.3091 125.031H60.1953V170H34.3091V125.031Z" fill="white"/>
</mask>
<g mask="url(#mask0_121_2439)">
<path d="M47.2409 151.84V170H51.6675L50.3055 138.139L54.8229 170H59.991L51.1 125.648C50.1995 125.949 49.2612 126.154 48.2624 126.154C47.0593 126.154 45.9167 125.901 44.8649 125.466L34.4907 170H45.0389L47.2409 151.84Z" fill="#1E88E5"/>
</g>
</svg>
