<svg width="30" height="25" viewBox="0 0 30 25" fill="none" xmlns="http://www.w3.org/2000/svg">
<path d="M21.1095 12.5262C21.2971 11.946 21.3929 11.314 21.3929 10.6329C21.3929 6.53442 17.9288 4.22827 11.769 4.22827C5.60911 4.22827 2.14307 6.53442 2.14307 10.6329C2.14307 13.7343 4.12851 15.8082 7.76416 16.634" stroke="#363939" stroke-linecap="round" stroke-linejoin="round"/>
<path d="M9.01123 21.3712C9.01123 21.3712 13.7184 17.2328 15.8056 17.3457C17.4818 17.436 17.6314 19.8072 19.1859 19.3797C20.2235 19.0942 26.1379 15.5241 27.5926 14.6399" stroke="#363939" stroke-linecap="round" stroke-linejoin="round"/>
<path d="M22.6182 14.3438C24.1666 14.0863 26.178 14.1898 27.6466 14.6027C28.0337 15.6317 27.8781 16.97 27.2595 17.9484" stroke="#363939" stroke-linecap="round" stroke-linejoin="round"/>
<path d="M6.96191 7.48901H15.1099" stroke="#363939" stroke-linecap="round" stroke-linejoin="round"/>
<path d="M6.96191 9.61865H15.1099" stroke="#363939" stroke-linecap="round" stroke-linejoin="round"/>
<path d="M10.4535 7.48901C11.2295 7.61809 12.7815 8.06987 12.7815 9.42519C12.7815 11.7486 8.12549 11.7486 8.12549 11.7486C8.12549 11.7486 10.4535 13.104 13.9455 13.6848" stroke="#363939" stroke-linecap="round" stroke-linejoin="round"/>
</svg>
