<svg width="20" height="20" viewBox="0 0 20 20" fill="none" xmlns="http://www.w3.org/2000/svg">
<g clip-path="url(#clip0_438_4186)">
<path d="M9.1665 3.33331H3.33317C2.89114 3.33331 2.46722 3.50891 2.15466 3.82147C1.8421 4.13403 1.6665 4.55795 1.6665 4.99998V16.6666C1.6665 17.1087 1.8421 17.5326 2.15466 17.8452C2.46722 18.1577 2.89114 18.3333 3.33317 18.3333H14.9998C15.4419 18.3333 15.8658 18.1577 16.1783 17.8452C16.4909 17.5326 16.6665 17.1087 16.6665 16.6666V10.8333" stroke="#363939" stroke-width="2" stroke-linecap="round" stroke-linejoin="round"/>
<path d="M16.6665 1.56555C16.1977 1.56555 15.748 1.7518 15.4165 2.08332L7.49984 9.99999L6.6665 13.3333L9.99984 12.5L17.9165 4.58332C18.248 4.2518 18.4343 3.80216 18.4343 3.33332C18.4343 2.86448 18.248 2.41484 17.9165 2.08332C17.585 1.7518 17.1353 1.56555 16.6665 1.56555Z" stroke="#363939" stroke-width="2" stroke-linecap="round" stroke-linejoin="round"/>
</g>
<defs>
<clipPath id="clip0_438_4186">
<rect width="20" height="20" fill="white"/>
</clipPath>
</defs>
</svg>
