<svg width="63" height="62" viewBox="0 0 63 62" fill="none" xmlns="http://www.w3.org/2000/svg">
<path d="M60.3181 30.9992C61.2756 29.8842 61.9466 28.5524 62.2729 27.1193C62.5992 25.6863 62.5709 24.1952 62.1904 22.7756C61.81 21.356 61.089 20.0506 60.0898 18.9727C59.0907 17.8948 57.8437 17.077 56.4569 16.5901C56.7286 15.1457 56.6438 13.6567 56.2098 12.2525C55.7757 10.8483 55.0056 9.57111 53.9663 8.53188C52.9269 7.49265 51.6497 6.72271 50.2454 6.28887C48.8411 5.85503 47.3521 5.77039 45.9077 6.0423C45.4213 4.65522 44.6036 3.40784 43.5257 2.40846C42.4478 1.40909 41.1422 0.687918 39.7224 0.307571C38.3025 -0.072775 36.8113 -0.100803 35.3782 0.225921C33.945 0.552645 32.6133 1.22425 31.4986 2.18241C30.3836 1.2249 29.0518 0.553909 27.6187 0.227637C26.1857 -0.0986356 24.6946 -0.0703314 23.275 0.310093C21.8554 0.690517 20.55 1.41157 19.4721 2.41071C18.3942 3.40984 17.5764 4.65688 17.0895 6.04364C15.6452 5.77217 14.1564 5.85719 12.7523 6.29133C11.3483 6.72546 10.0713 7.49559 9.03226 8.53492C7.9932 9.57425 7.22339 10.8514 6.78962 12.2556C6.35585 13.6597 6.27121 15.1485 6.54304 16.5928C5.15628 17.0797 3.90924 17.8975 2.91011 18.9754C1.91097 20.0533 1.18991 21.3586 0.809487 22.7783C0.429063 24.1979 0.400754 25.689 0.727027 27.122C1.0533 28.5551 1.72431 29.8869 2.68181 31.0019C1.72402 32.1169 1.0528 33.4488 0.726436 34.882C0.400071 36.3152 0.428404 37.8064 0.808995 39.2262C1.18959 40.646 1.91092 41.9514 2.9104 43.0292C3.90988 44.107 5.15731 44.9246 6.54439 45.411C6.27232 46.8553 6.35686 48.3442 6.79069 49.7485C7.22451 51.1527 7.99451 52.4299 9.03384 53.4691C10.0732 54.5082 11.3504 55.2781 12.7547 55.7117C14.159 56.1454 15.6479 56.2297 17.0922 55.9575C17.5791 57.3442 18.3969 58.5913 19.4748 59.5904C20.5527 60.5896 21.858 61.3106 23.2777 61.691C24.6973 62.0715 26.1883 62.0998 27.6214 61.7735C29.0545 61.4472 30.3863 60.7762 31.5013 59.8187C32.6163 60.7765 33.9482 61.4477 35.3814 61.7741C36.8146 62.1005 38.3058 62.0721 39.7256 61.6915C41.1454 61.3109 42.4508 60.5896 43.5286 59.5901C44.6064 58.5906 45.424 57.3432 45.9104 55.9561C47.3548 56.2281 48.8437 56.1435 50.248 55.7097C51.6522 55.2759 52.9294 54.5059 53.9687 53.4666C55.008 52.4273 55.778 51.1502 56.2118 49.7459C56.6456 48.3416 56.7302 46.8527 56.4582 45.4083C57.8451 44.9216 59.0922 44.1038 60.0914 43.0258C61.0906 41.9479 61.8116 40.6424 62.192 39.2227C62.5723 37.803 62.6004 36.3119 62.2738 34.8788C61.9473 33.4458 61.276 32.114 60.3181 30.9992Z" fill="#18C07A"/>
<path d="M25.9352 42.8328L17.3206 34.2237C16.9937 33.8962 16.8101 33.4524 16.8101 32.9896C16.8101 32.5269 16.9937 32.0831 17.3206 31.7556L18.3672 30.7077C18.6947 30.3808 19.1385 30.1971 19.6012 30.1971C20.064 30.1971 20.5078 30.3808 20.8352 30.7077L27.0973 36.9657L41.845 21.2938C42.1623 20.9571 42.6003 20.76 43.0627 20.7459C43.5252 20.7318 43.9744 20.9018 44.3116 21.2185L45.3864 22.2329C45.7235 22.5503 45.9208 22.9885 45.9349 23.4513C45.949 23.9141 45.7788 24.3636 45.4617 24.7009L28.4448 42.7939C28.2846 42.9646 28.0917 43.1014 27.8775 43.1961C27.6634 43.2908 27.4324 43.3415 27.1983 43.3451C26.9641 43.3488 26.7317 43.3053 26.5147 43.2173C26.2977 43.1293 26.1006 42.9985 25.9352 42.8328Z" fill="white"/>
</svg>
