<svg width="14" height="14" viewBox="0 0 14 14" fill="none" xmlns="http://www.w3.org/2000/svg">
<g clip-path="url(#clip0_153_3034)">
<path d="M12.8332 6.46334V7C12.8325 8.25792 12.4251 9.4819 11.6719 10.4894C10.9188 11.4969 9.86009 12.2339 8.6538 12.5906C7.4475 12.9473 6.15824 12.9044 4.97828 12.4685C3.79832 12.0326 2.79089 11.2269 2.10623 10.1716C1.42158 9.11636 1.09638 7.86804 1.17915 6.61285C1.26192 5.35767 1.74821 4.16286 2.5655 3.20663C3.38279 2.2504 4.4873 1.58398 5.71428 1.30675C6.94127 1.02953 8.22499 1.15637 9.37401 1.66834" stroke="#64BE61" stroke-width="2" stroke-linecap="round" stroke-linejoin="round"/>
<path d="M12.8333 2.33325L7 8.17242L5.25 6.42242" stroke="#64BE61" stroke-width="2" stroke-linecap="round" stroke-linejoin="round"/>
</g>
<defs>
<clipPath id="clip0_153_3034">
<rect width="14" height="14" fill="white"/>
</clipPath>
</defs>
</svg>
