<svg width="30" height="25" viewBox="0 0 30 25" fill="none" xmlns="http://www.w3.org/2000/svg">
<g opacity="0.8" clip-path="url(#clip0_67_906)">
<g clip-path="url(#clip1_67_906)">
<path d="M28.9264 6.42624L15.3573 3.41088C15.1252 3.3593 14.8742 3.3593 14.6421 3.41088L1.07296 6.42624C0.611207 6.52886 0.29977 6.81695 0.299805 7.14144V14.6798C0.299805 15.2601 1.24211 15.6228 1.99594 15.3327C2.3458 15.198 2.56132 14.9492 2.56132 14.6798V8.1874L7.30911 9.24183C4.68255 12.0708 5.98859 15.7833 10.2279 17.5388C7.68366 18.204 5.48433 19.4074 3.87583 21.0526C3.38989 21.5341 3.86796 22.1857 4.73637 22.2255C5.15098 22.2445 5.54782 22.1104 5.76985 21.8762C7.89992 19.6976 11.2639 18.449 14.9997 18.449C18.7354 18.449 22.0994 19.6976 24.2295 21.8762C24.7154 22.3576 25.801 22.3079 26.1834 21.7866C26.3558 21.5516 26.3332 21.2738 26.1235 21.0526C24.515 19.4074 22.3072 18.204 19.7715 17.5388C24.0065 15.7835 25.312 12.0745 22.6903 9.24655L28.9264 7.86137C29.7522 7.67797 29.9706 6.96734 29.3195 6.58224C29.2051 6.51462 29.0714 6.46316 28.9264 6.43095V6.42624ZM21.7842 12.4183C21.7857 15.9002 16.1328 18.0774 11.6091 16.3373C8.10469 14.9894 7.13754 11.9093 9.5367 9.73748L14.6421 10.8682C14.8742 10.9198 15.1252 10.9198 15.3573 10.8682L20.4627 9.73748C21.3217 10.5139 21.7849 11.4535 21.7842 12.4183ZM14.9997 9.36244L5.00659 7.14144L14.9997 4.92044L24.9928 7.14144L14.9997 9.36244Z" fill="#363939"/>
</g>
</g>
<defs>
<clipPath id="clip0_67_906">
<rect width="30" height="20" fill="white" transform="translate(0 2.79968)"/>
</clipPath>
<clipPath id="clip1_67_906">
<rect width="30" height="20" fill="white" transform="translate(0 2.79968)"/>
</clipPath>
</defs>
</svg>
