<svg width="30" height="25" viewBox="0 0 30 25" fill="none" xmlns="http://www.w3.org/2000/svg">
<g clip-path="url(#clip0_67_914)">
<path d="M10.625 11.3711H19.375" stroke="#363939" stroke-linecap="round" stroke-linejoin="round"/>
<path d="M10.625 13.6625H19.375" stroke="#363939" stroke-linecap="round" stroke-linejoin="round"/>
<path d="M14.3745 11.3711C15.2079 11.51 16.8745 11.9961 16.8745 13.4544C16.8745 15.9544 11.8745 15.9544 11.8745 15.9544C11.8745 15.9544 14.3745 17.4128 18.1245 18.0378" stroke="#363939" stroke-linecap="round" stroke-linejoin="round"/>
<path d="M15.0002 22.0853C22.5002 22.0853 27.8574 20.3166 27.8574 16.3798C27.8574 12.1007 24.6431 9.24794 18.2145 7.10839L20.7431 4.94029C20.8715 4.79804 20.9412 4.63572 20.945 4.46976C20.9489 4.3038 20.8867 4.14013 20.7649 3.99531C20.6431 3.8505 20.4659 3.7297 20.2513 3.64516C20.0367 3.56062 19.7924 3.51534 19.5431 3.51392H10.4574C10.208 3.51534 9.96368 3.56062 9.74912 3.64516C9.53453 3.7297 9.35736 3.8505 9.23554 3.99531C9.1137 4.14013 9.05155 4.3038 9.05539 4.46976C9.05922 4.63572 9.12889 4.79804 9.25735 4.94029L11.7859 7.12264C5.35735 9.27647 2.14307 12.1292 2.14307 16.4084C2.14307 20.3166 7.50021 22.0853 15.0002 22.0853Z" stroke="#363939" stroke-linecap="round" stroke-linejoin="round"/>
</g>
<defs>
<clipPath id="clip0_67_914">
<rect width="30" height="20" fill="white" transform="translate(0 2.79968)"/>
</clipPath>
</defs>
</svg>
