<svg width="24" height="25" viewBox="0 0 24 25" fill="none" xmlns="http://www.w3.org/2000/svg">
<g clip-path="url(#clip0_67_925)">
<path d="M22 8.21635C21.7258 8.21635 21.4508 8.27468 21.2192 8.42052C19.9167 9.24385 19.9167 10.3664 19.9167 11.133V11.5497H16.1667M9.5 14.0497H22M15.75 14.0497V22.7997M12 22.383C11.1667 22.383 10.5417 21.133 10.5417 21.133C9.91667 19.883 9.91667 19.0497 9.91667 17.7997V16.5497H3.25V16.3414L4.85167 10.0955C4.98948 9.55793 5.30226 9.08148 5.74071 8.74125C6.17917 8.40102 6.71836 8.21636 7.27333 8.21635H8.25L9.45583 10.628C9.59428 10.9051 9.80718 11.1381 10.0707 11.3009C10.3341 11.4637 10.6378 11.5498 10.9475 11.5497H14.5M8.125 6.54968C8.125 6.54968 6.79167 5.71635 6.79167 4.67468C6.79167 4.48339 6.82934 4.29397 6.90255 4.11724C6.97575 3.94051 7.08305 3.77993 7.21831 3.64467C7.35358 3.5094 7.51416 3.4021 7.69089 3.3289C7.86762 3.2557 8.05704 3.21802 8.24833 3.21802C8.43963 3.21802 8.62904 3.2557 8.80578 3.3289C8.98251 3.4021 9.14309 3.5094 9.27835 3.64467C9.41362 3.77993 9.52091 3.94051 9.59412 4.11724C9.66732 4.29397 9.705 4.48339 9.705 4.67468C9.705 5.71635 8.375 6.54968 8.375 6.54968H8.125Z" stroke="#363939"/>
</g>
<defs>
<clipPath id="clip0_67_925">
<rect width="20" height="20" fill="white" transform="translate(2 2.79968)"/>
</clipPath>
</defs>
</svg>
